<?xml version="1.0"?>
<svg xmlns="http://www.w3.org/2000/svg" height="100px" viewBox="-1 0 504 504.17444" width="100px">
  <path d="m5.070312 187.304688 31.894532 14.269531c4.777344 2.140625 9.636718 4.195312 14.503906 6.277343 13.3125 5.269532 26.21875 11.519532 38.609375 18.691407 14.585937 10.367187 27.003906 23.484375 36.5625 38.613281l3.089844 4.195312c-17.410157 5.949219-34.160157 13.679688-49.984375 23.074219-2.546875 1.59375-4.054688 4.425781-3.949219 7.429688.109375 3.003906 1.808594 5.722656 4.460937 7.132812 2.65625 1.410157 5.863282 1.300781 8.410157-.292969.730469-.453124 73.265625-45.269531 145.425781-31.570312 53.28125 10.125 113.109375 93.875 113.714844 94.710938l.058594.058593c.71875.964844 1.636718 1.757813 2.695312 2.328125.242188.132813.46875.242188.710938.351563 1.046874.511719 2.191406.800781 3.359374.839843.089844 0 .183594-.042968.269532-.042968.78125-.019532 1.558594-.144532 2.304687-.378906h.070313c.109375 0 .175781-.125.285156-.167969.679688-.226563 1.328125-.550781 1.921875-.957031.125-.082032.175781-.21875.292969-.308594.46875-.394532.890625-.847656 1.25-1.34375.34375-.363282.648437-.761719.914062-1.183594.242188-.476562.433594-.976562.570313-1.492188.191406-.496093.335937-1.007812.429687-1.527343.042969-.5.042969-1 0-1.496094-.003906-.597656-.078125-1.191406-.21875-1.769531-.007812-.140625-.023437-.277344-.050781-.414063l-1.980469-5.882812c-10.28125-29.058594-18.789062-58.710938-25.472656-88.800781-4.121094-25.0625-5.527344-50.492188-4.199219-75.851563.1875-12.171875.386719-24.753906 0-37.308594-.246093-8.414062-3.085937-16.546875-8.132812-23.285156l-24.808594-33.269531c10.917969-6.003906 18.574219-16.582032 20.863281-28.832032.644532-4.511718-2.429687-8.714843-6.921875-9.464843-4.496093-.753907-8.769531 2.21875-9.628906 6.695312-1.300781 7.105469-5.707031 13.257813-12.011719 16.785157-9.347656 3.878906-23.886718-.90625-41.964844-13.839844-1.738281-1.230469-3.878906-1.746094-5.984374-1.4375-2.792969-.449219-5.625.539062-7.535157 2.628906-1.90625 2.085938-2.636719 4.996094-1.933593 7.738281l10.828124 41.96875c.179688.539063.414063 1.0625.695313 1.558594-3.933594 4.476563-9.507813 7.179687-15.460937 7.496094-4.492188-.636719-8.5625-2.992188-11.355469-6.570313l-7.949219-33.355468c-1.074219-4.511719-5.601562-7.296876-10.113281-6.222657-4.511719 1.078125-7.296875 5.605469-6.21875 10.117188l8.390625 35.210937c.058594.242188.253906.417969.335937.660156-4.8125 2.328126-10.355469 2.628907-15.390625.839844-5.179687-3.027344-8.964844-7.964844-10.550781-13.746094l-3.117187-17.988281c-.4375-3.019531-2.484376-5.5625-5.339844-6.640625-2.855469-1.078125-6.070313-.523437-8.394532 1.453125-2.328124 1.976563-3.398437 5.058594-2.800781 8.050781l3.308594 19.019532c.003906 2.746094-1.0625 5.390625-2.972656 7.367187-2.707031 3.875-6.816407 6.539063-11.457031 7.4375-3.785157.3125-7.589844-.332031-11.0625-1.871093-.449219-4.75-1.144532-9.472657-2.078126-14.152344-6.011718-33.765625-9.695312-71.007813 22.660157-85.421875 34.355469-15.289063 145.039062-21.730469 163.503906-12.402344 17.25 8.6875 80.578125 102.75 115.058594 183.714844 26.808593 63.042969 46.398437 165.300781 51.769531 195.128906.566406 3.117187-.671875 6.285156-3.195312 8.195313l-32.785157 24.777343c-.757812.574219-1.609375 1.011719-2.519531 1.289063-9.753906 3.058594-50.074219 15.109375-159.039062 42.589844-123.089844 31.074218-207.175782-61.851563-208.015626-62.800782-3.066406-3.476562-8.375-3.804687-11.851562-.738281-3.476562 3.070313-3.804688 8.375-.738281 11.851563 16.652343 17.195312 35.730469 31.859374 56.621093 43.539062-24.660156 9.324219-62.714843 18.960938-63.183593 19.078125-4.109375 1.027344-6.808594 4.960937-6.289063 9.167969.515625 4.207031 4.089844 7.367187 8.328125 7.367187.691407-.003906 1.382813-.085937 2.054688-.253906 26.765625-6.539063 53.015625-15.03125 78.539062-25.414063 46.3125 22.125 98.929688 27.261719 148.648438 14.511719 109.390625-27.554687 150.089843-39.757812 159.953125-42.804687 2.746094-.859375 5.320312-2.191406 7.613281-3.929688l32.808594-24.792968c7.597656-5.707032 11.316406-15.214844 9.601562-24.5625-5.445312-30.273438-25.347656-134.066407-52.878906-198.730469-30.089844-70.890625-96.386719-178.8125-122.910156-192.183594-24.460938-12.320313-140.828125-4.433594-177.875 12.0625-47.121094 20.980469-37.183594 76.847656-32.414063 103.699219.902344 4.316406 1.539063 8.6875 1.894532 13.085937 0 1.679688.78125 16.785157 27.78125 16.785157 9.742187-.773438 18.671874-5.734376 24.476562-13.597657 2.769531 2.976563 6.082031 5.394531 9.761719 7.121094 4.089843 1.875 8.542969 2.832031 13.042969 2.808594 7.335937-.214844 14.519531-2.136719 20.984374-5.605469.292969-.203125.574219-.421875.839844-.65625 4.070313 2.476562 8.675782 3.941406 13.429688 4.273438.621094 0 1.25.058593 1.871094.058593 10.351562-.578125 20.0625-5.210937 27.027343-12.890625 3.480469 1.953125 7.269531 3.296875 11.203125 3.976563 2.085938.355469 4.191406.53125 6.304688.53125 9.320312-.34375 18.363281-3.246094 26.136718-8.394531l8.890626 11.933593c2.980468 3.996094 4.660156 8.808594 4.816406 13.792969.386718 12.160156.191406 24.542969 0 36.511719-1.335938 26.550781.1875 53.171875 4.542968 79.402343 3.808594 18.246094 8.542969 36.285157 14.183594 54.050782-24.105468-26.597656-60.214844-59.644532-95.6875-66.382813-30.378906-5.097656-61.527344-3.15625-91.042968 5.675781-.246094-.871093-.636719-1.695312-1.148438-2.445312l-4.84375-6.578125c-10.800781-16.914063-24.835938-31.523437-41.304688-42.992187-13.105468-7.617188-26.761718-14.246094-40.859374-19.824219-4.765626-2.03125-9.527344-4.054688-14.210938-6.144531l-31.894531-14.269532c-4.230469-1.894531-9.199219 0-11.09375 4.230469-1.898438 4.230469-.003907 9.199219 4.230469 11.097656zm266.0625-66.710938c-4.453124-.738281-8.523437-2.976562-11.53125-6.34375l-5.617187-21.824219c8.441406 4.855469 17.851563 7.792969 27.558594 8.59375-.007813 1.699219.519531 3.359375 1.5 4.742188l7.429687 9.988281c-5.703125 3.777344-12.527344 5.488281-19.339844 4.84375zm0 0" fill="#0071b7"/><path d="m229.453125 451.757812c16.761719-.15625 33.445313-2.371093 49.671875-6.589843 2.96875-.667969 5.347656-2.894531 6.207031-5.8125.863281-2.921875.074219-6.078125-2.058593-8.253907-2.132813-2.171874-5.273438-3.023437-8.210938-2.214843-92.679688 23.171875-123.695312-27.414063-125.003906-29.628907-2.316406-4.019531-7.453125-5.394531-11.46875-3.078124-4.019532 2.316406-5.394532 7.453124-3.078125 11.46875 1.234375 2.125 26.15625 44.109374 93.941406 44.109374zm0 0" fill="#0071b7"/><path d="m226.734375 227.191406v-50.359375c0-4.636719-3.757813-8.394531-8.394531-8.394531-4.636719 0-8.394532 3.757812-8.394532 8.394531v50.359375c0 4.636719 3.757813 8.394532 8.394532 8.394532 4.636718 0 8.394531-3.757813 8.394531-8.394532zm0 0" fill="#0071b7"/><path d="m277.09375 243.976562c3.609375 0 6.816406-2.3125 7.957031-5.738281l8.394531-25.183593c.945313-2.847657.300782-5.984376-1.691406-8.230469-1.992187-2.246094-5.03125-3.253907-7.972656-2.652344-2.941406.605469-5.335938 2.730469-6.285156 5.578125l-8.394532 25.183594c-.851562 2.5625-.421874 5.378906 1.164063 7.570312 1.582031 2.191406 4.125 3.484375 6.828125 3.472656zm0 0" fill="#0071b7"/><path d="m159.585938 243.976562c2.695312 0 5.226562-1.296874 6.804687-3.484374 1.574219-2.191407 2.003906-5 1.152344-7.558594l-8.394531-25.183594c-.949219-2.847656-3.34375-4.972656-6.285157-5.578125-2.9375-.601563-5.980469.40625-7.972656 2.652344-1.992187 2.246093-2.636719 5.382812-1.691406 8.230469l8.394531 25.183593c1.144531 3.4375 4.367188 5.75 7.992188 5.738281zm0 0" fill="#0071b7"/></svg>
