<?xml version="1.0" encoding="UTF-8" ?>
<!DOCTYPE svg PUBLIC "-//W3C//DTD SVG 1.1//EN" "http://www.w3.org/Graphics/SVG/1.1/DTD/svg11.dtd">
<svg width="100px" height="100px" viewBox="0 0 365 512" version="1.1" xmlns="http://www.w3.org/2000/svg">
<g id="#0071b7ff">
<path fill="#0071b7" opacity="1.00" d=" M 129.82 9.81 C 151.80 0.47 176.48 -1.99 199.99 1.93 C 217.00 4.82 233.60 11.21 247.45 21.61 C 258.45 29.84 267.71 40.85 272.25 53.95 C 276.85 66.49 276.72 80.70 271.83 93.13 C 269.52 99.39 265.98 105.13 261.94 110.41 C 282.70 120.70 302.15 134.02 318.20 150.82 C 330.73 163.69 341.00 178.74 348.56 195.04 C 356.43 212.07 361.26 230.43 363.32 249.06 C 366.36 276.48 363.70 304.33 357.26 331.09 C 354.53 342.32 351.15 353.41 346.79 364.13 C 345.89 365.62 346.30 367.33 346.41 368.96 C 347.67 380.74 343.79 392.89 336.23 401.97 C 327.20 412.92 312.53 418.74 298.44 417.03 C 297.44 419.53 296.30 421.97 295.14 424.41 C 298.85 427.03 302.89 429.11 307.03 430.95 C 309.75 431.91 310.00 436.11 307.60 437.54 C 300.46 441.45 293.52 445.98 287.96 452.00 C 283.89 456.38 280.67 461.88 280.61 468.02 C 280.05 472.18 272.77 472.21 272.10 468.11 C 271.98 464.96 271.43 461.83 269.82 459.08 C 256.19 475.17 240.36 489.71 221.86 500.02 C 213.15 504.79 203.76 508.51 193.94 510.18 C 184.31 511.97 174.38 510.97 164.91 508.77 C 146.55 504.35 129.88 494.58 115.41 482.65 C 94.13 464.78 76.91 442.12 65.04 417.02 C 56.11 417.94 46.83 416.44 39.02 411.90 C 25.44 404.51 16.70 389.39 16.58 373.99 C 16.37 370.28 17.27 366.64 17.44 362.96 C 16.86 360.60 15.89 358.36 15.12 356.07 C 7.81 335.10 3.18 313.20 1.23 291.07 C -0.77 267.26 0.58 243.01 6.81 219.88 C 11.62 201.54 19.67 184.07 30.39 168.45 C 47.07 144.40 70.21 125.27 95.93 111.54 C 86.54 100.30 80.62 85.76 81.34 70.98 C 81.67 58.15 86.87 45.80 94.78 35.82 C 103.90 24.24 116.41 15.70 129.82 9.81 M 134.53 21.38 C 120.89 27.29 108.23 36.57 100.45 49.44 C 94.52 59.10 92.34 70.96 94.60 82.08 C 117.26 51.98 148.52 28.71 183.24 14.28 C 184.20 13.84 185.16 13.36 186.10 12.85 C 168.57 11.71 150.69 14.38 134.53 21.38 M 202.36 20.49 C 174.87 29.52 149.34 44.44 127.94 63.91 C 119.63 71.61 111.74 79.84 105.02 88.99 C 103.43 91.26 101.90 93.60 99.85 95.49 C 101.96 99.12 104.50 102.46 107.20 105.65 C 117.87 100.84 128.67 96.26 139.83 92.74 C 143.20 91.94 146.74 91.56 149.80 89.80 C 167.76 81.35 184.17 68.93 195.58 52.55 C 202.99 41.88 208.32 29.65 210.47 16.80 C 208.06 18.63 205.20 19.59 202.36 20.49 M 222.28 21.35 C 218.37 41.70 207.58 60.40 192.96 74.96 C 188.54 79.46 183.63 83.43 178.66 87.31 C 187.64 85.80 196.37 83.08 204.87 79.88 C 223.72 72.59 241.55 60.19 251.25 42.05 C 243.33 33.04 233.28 26.07 222.28 21.35 M 210.03 91.25 C 223.96 93.96 237.19 99.36 250.19 104.93 C 257.59 96.72 262.68 86.12 263.09 74.96 C 263.56 67.67 261.81 60.41 258.81 53.80 C 247.23 71.27 229.33 83.65 210.03 91.25 M 156.03 102.90 C 151.26 103.08 146.48 103.78 141.90 105.15 C 118.26 113.22 95.45 124.25 75.52 139.42 C 58.59 152.29 43.97 168.36 33.54 186.94 C 21.45 207.97 15.11 231.96 13.32 256.06 C 11.15 286.78 15.84 317.75 25.17 347.02 C 30.42 339.96 37.89 334.70 46.24 331.95 C 45.35 322.18 44.46 312.39 44.37 302.57 C 39.62 303.72 34.94 305.23 30.11 306.02 C 25.87 306.89 21.83 302.19 23.27 298.15 C 23.86 295.72 26.09 294.09 28.47 293.68 C 40.49 291.04 52.28 287.47 63.99 283.72 C 87.11 275.96 109.88 266.65 130.63 253.70 C 143.85 245.36 156.44 235.50 165.83 222.88 C 171.17 215.85 174.86 207.67 176.93 199.11 C 176.80 196.66 175.60 194.12 176.68 191.74 C 178.02 188.21 182.90 186.74 185.92 189.04 C 188.35 190.47 188.65 193.48 189.11 195.98 C 192.38 213.95 201.54 230.64 214.43 243.51 C 227.01 256.35 242.65 265.75 258.95 273.08 C 283.23 283.66 309.29 289.87 335.59 292.55 C 339.20 293.20 341.58 297.56 340.06 300.94 C 339.17 303.35 336.58 305.03 334.02 304.80 C 328.63 304.52 323.32 303.50 317.97 302.94 C 317.64 312.56 317.05 322.16 316.09 331.74 C 325.52 334.48 333.85 340.62 339.31 348.77 C 349.33 317.88 354.40 285.03 351.17 252.57 C 348.62 225.92 339.80 199.64 324.28 177.70 C 316.83 167.01 307.94 157.37 298.10 148.86 C 276.53 130.30 250.71 117.29 223.95 108.01 C 209.94 102.79 194.89 100.84 180.00 101.02 C 171.97 100.84 164.04 102.41 156.03 102.90 M 174.74 231.73 C 162.98 247.14 147.03 258.73 130.41 268.39 C 107.20 281.51 82.27 291.39 56.75 299.03 C 56.84 322.18 60.00 345.21 64.14 367.95 C 67.29 383.52 70.70 399.21 77.19 413.79 C 87.65 435.06 102.14 454.43 119.96 470.10 C 128.85 477.80 138.50 484.74 149.13 489.84 C 159.92 495.25 171.86 498.80 184.01 498.66 C 193.65 498.73 202.92 495.40 211.50 491.28 C 231.33 481.43 247.90 466.07 261.94 449.14 C 256.98 444.54 251.28 440.84 245.32 437.68 C 242.42 436.38 243.04 431.64 246.01 430.80 C 254.27 427.12 262.29 422.04 267.49 414.46 C 270.61 409.96 272.20 404.49 272.03 399.02 C 273.90 395.57 280.23 395.71 280.69 400.02 C 280.65 405.48 282.50 410.75 285.65 415.18 C 291.18 403.09 294.00 390.01 296.82 377.09 C 301.69 351.88 304.95 326.28 305.51 300.60 C 287.19 296.79 269.16 291.35 252.08 283.66 C 237.37 276.97 223.34 268.53 211.27 257.72 C 199.18 247.04 189.34 233.76 183.01 218.90 C 180.39 223.26 177.89 227.71 174.74 231.73 M 33.26 357.29 C 31.23 360.35 30.67 364.03 29.58 367.47 C 27.12 379.42 32.45 392.57 42.54 399.44 C 47.71 403.21 54.14 404.85 60.48 404.89 C 54.35 385.26 50.45 364.99 47.82 344.62 C 41.76 347.13 36.54 351.60 33.26 357.29 M 314.68 344.35 C 312.05 364.75 308.53 385.08 302.85 404.87 C 313.70 405.17 324.27 399.02 329.68 389.67 C 335.37 380.33 335.70 368.03 330.53 358.40 C 327.19 351.98 321.43 346.93 314.68 344.35 M 255.78 434.71 C 263.84 439.94 271.64 446.24 276.39 454.76 C 281.05 446.17 288.95 440.00 296.93 434.67 C 288.55 429.97 280.63 423.51 276.45 414.67 C 271.96 423.40 264.22 429.95 255.78 434.71 Z" />
<path fill="#0071b7" opacity="1.00" d=" M 71.26 347.97 C 82.30 336.63 98.28 330.69 114.00 331.00 C 125.84 331.28 137.44 334.68 148.02 339.89 C 150.78 341.00 152.74 344.18 151.89 347.15 C 151.36 349.88 148.76 351.82 146.06 352.10 C 144.15 351.97 142.47 350.98 140.75 350.22 C 136.68 348.24 132.34 346.93 128.08 345.47 C 132.45 353.29 132.23 363.57 127.14 371.01 C 124.20 375.32 119.27 378.40 113.98 378.50 C 109.12 378.70 104.36 376.39 101.27 372.69 C 94.69 365.28 94.29 353.76 99.02 345.29 C 92.22 347.78 85.52 351.15 80.47 356.47 C 79.01 358.02 77.35 359.78 75.06 359.83 C 71.74 360.20 68.52 357.37 68.39 354.05 C 68.02 351.61 69.70 349.61 71.26 347.97 M 111.18 350.09 C 106.94 354.30 107.33 362.20 112.06 365.91 C 112.77 365.92 114.19 365.95 114.90 365.96 C 119.64 362.18 120.13 354.19 115.75 349.97 C 114.45 348.69 112.43 348.83 111.18 350.09 Z" />
<path fill="#0071b7" opacity="1.00" d=" M 206.15 340.20 C 217.54 334.47 230.18 330.80 243.01 331.02 C 258.10 331.23 273.26 337.29 283.71 348.31 C 284.93 349.62 286.33 351.09 286.38 353.01 C 286.83 356.59 283.58 360.11 279.97 359.87 C 277.86 359.95 276.21 358.53 274.89 357.08 C 269.67 351.48 262.79 347.62 255.53 345.33 C 260.86 353.76 259.93 365.74 253.14 373.11 C 249.39 377.23 243.45 379.53 237.93 378.15 C 232.59 376.97 228.16 372.94 225.91 368.02 C 222.50 360.94 222.83 352.28 226.76 345.48 C 222.45 346.84 218.12 348.20 214.06 350.21 C 212.42 350.97 210.80 351.87 208.97 352.08 C 205.78 351.98 202.81 349.31 202.75 346.04 C 202.50 343.62 204.00 341.24 206.15 340.20 M 240.16 349.27 C 235.93 351.66 235.09 357.65 236.80 361.87 C 237.63 364.17 239.99 367.17 242.72 365.68 C 247.06 362.78 247.38 356.29 245.10 351.98 C 244.20 350.30 242.21 348.38 240.16 349.27 Z" />
<path fill="#0071b7" opacity="1.00" d=" M 58.01 445.12 C 59.82 442.37 64.23 442.11 65.87 445.18 C 66.34 447.37 66.18 449.74 67.20 451.79 C 69.34 456.40 73.55 459.75 78.04 461.93 C 79.35 462.62 80.79 463.13 81.92 464.13 C 83.40 465.85 82.99 468.91 80.87 469.94 C 75.76 472.87 70.46 476.18 67.42 481.42 C 66.26 483.30 66.28 485.57 65.73 487.65 C 64.64 489.63 61.81 490.62 59.87 489.25 C 57.11 487.86 58.30 484.29 56.89 482.03 C 54.08 476.80 49.03 473.25 43.96 470.44 C 42.27 469.71 40.79 467.99 41.27 466.04 C 41.37 464.17 43.17 463.25 44.66 462.59 C 49.27 460.51 53.64 457.42 56.25 452.99 C 57.66 450.62 57.81 447.80 58.01 445.12 M 53.14 466.89 C 56.42 469.32 59.42 472.10 62.00 475.26 C 64.60 472.10 67.59 469.29 70.89 466.89 C 67.49 464.66 64.54 461.85 62.00 458.69 C 59.49 461.86 56.55 464.68 53.14 466.89 Z" />
<path fill="#0071b7" opacity="1.00" d=" M 315.88 452.08 C 317.12 448.61 322.57 448.60 323.86 452.03 C 324.34 455.02 324.36 458.20 325.95 460.89 C 329.50 467.40 336.10 471.52 342.70 474.44 C 345.07 475.62 345.07 479.43 342.85 480.74 C 335.90 484.76 328.45 489.34 325.00 496.93 C 323.72 499.28 324.84 502.71 322.35 504.36 C 321.14 505.30 319.47 504.85 318.07 505.08 C 314.74 502.99 316.19 498.67 314.24 495.74 C 310.36 488.99 303.69 484.43 296.97 480.84 C 294.58 479.44 294.77 475.48 297.27 474.32 C 303.82 471.40 310.38 467.32 313.83 460.80 C 315.33 458.13 315.45 455.03 315.88 452.08 M 307.33 477.95 C 312.13 481.21 316.60 485.05 319.86 489.90 C 323.13 485.09 327.59 481.26 332.34 477.98 C 327.48 474.81 322.99 470.97 319.87 466.02 C 316.74 470.97 312.24 474.85 307.33 477.95 Z" />
</g>
</svg>
