<?xml version="1.0" encoding="UTF-8" ?>
<!DOCTYPE svg PUBLIC "-//W3C//DTD SVG 1.1//EN" "http://www.w3.org/Graphics/SVG/1.1/DTD/svg11.dtd">
<svg width="100px" height="100px" viewBox="0 0 512 512" version="1.1" xmlns="http://www.w3.org/2000/svg">
<g id="#0071b7ff">
<path fill="#0071b7" opacity="1.00" d=" M 248.22 12.25 C 262.45 5.62 280.01 6.29 293.45 14.53 C 299.55 18.21 304.70 23.57 307.80 30.02 C 310.92 36.46 311.62 43.99 309.75 50.89 C 320.70 57.41 330.01 66.72 336.22 77.87 C 345.19 93.59 348.00 112.23 346.33 130.10 C 344.50 148.88 338.20 167.26 327.82 183.04 C 321.69 192.30 314.09 200.67 304.98 207.06 C 296.17 213.26 285.85 217.51 275.09 218.58 C 261.43 220.15 247.42 216.55 235.85 209.24 C 217.95 198.00 205.51 179.67 198.16 160.14 C 189.80 137.50 187.71 111.75 196.22 88.85 C 201.93 73.05 213.28 59.42 227.75 50.89 C 226.08 44.37 226.49 37.33 229.18 31.15 C 232.83 22.73 240.00 16.14 248.22 12.25 M 249.75 28.74 C 244.82 32.33 241.21 38.28 241.85 44.54 C 249.98 41.99 258.42 40.16 266.98 40.05 C 276.76 39.72 286.44 41.64 295.74 44.51 C 296.46 36.75 290.96 29.99 284.42 26.56 C 273.66 20.97 259.63 21.51 249.75 28.74 M 254.19 56.56 C 239.08 59.61 225.14 68.67 216.74 81.66 C 208.17 94.53 204.96 110.42 206.04 125.71 C 219.47 124.32 232.78 121.41 245.36 116.47 C 262.44 110.00 277.95 99.73 291.19 87.20 C 293.68 85.09 295.80 82.51 298.59 80.78 C 302.27 88.59 306.45 96.28 312.29 102.71 C 317.40 108.46 323.69 113.61 331.30 115.50 C 330.56 103.06 326.93 90.60 319.69 80.35 C 313.42 71.17 304.32 64.05 294.06 59.84 C 281.49 54.76 267.41 53.88 254.19 56.56 M 208.02 140.56 C 212.30 160.24 222.23 179.21 237.99 192.07 C 247.69 199.93 260.21 205.02 272.85 203.70 C 286.44 202.30 298.55 194.45 307.58 184.52 C 320.93 169.76 328.95 150.46 331.03 130.74 C 315.43 128.39 303.33 116.78 294.50 104.45 C 270.36 125.14 239.55 137.40 208.02 140.56 Z" />
<path fill="#0071b7" opacity="1.00" d=" M 196.02 227.02 C 203.21 219.39 211.62 213.04 220.46 207.44 C 223.00 211.51 225.21 215.96 228.99 219.06 C 238.54 227.41 251.68 230.36 264.10 229.95 C 280.49 229.25 296.32 223.95 311.03 216.95 C 316.57 214.56 321.75 210.94 327.89 210.25 C 334.02 209.67 339.84 212.72 344.27 216.72 C 347.94 220.12 351.00 224.13 353.64 228.37 C 361.08 240.65 365.96 254.27 370.02 267.98 C 375.21 286.23 378.64 305.01 379.90 323.95 C 380.66 337.65 380.55 351.62 377.10 364.99 C 373.07 380.03 362.74 392.32 351.53 402.69 C 351.92 412.17 353.47 421.53 354.88 430.90 C 359.16 455.59 364.94 480.00 371.33 504.22 C 301.54 504.32 231.74 504.18 161.95 504.28 C 153.15 493.53 145.73 481.58 140.21 468.82 C 133.07 452.30 129.86 433.83 132.76 415.96 C 135.39 398.76 143.42 382.71 154.25 369.22 C 163.56 357.81 174.55 347.77 186.83 339.64 C 177.92 328.65 170.64 315.96 167.93 301.94 C 165.12 288.26 167.00 273.81 172.41 260.99 C 177.82 248.19 186.11 236.71 196.02 227.02 M 325.49 226.72 C 320.44 229.37 317.40 234.60 315.76 239.89 C 313.80 246.40 313.10 253.22 313.00 260.00 C 312.69 283.12 317.13 305.94 318.45 328.96 C 318.76 337.53 318.98 346.57 315.25 354.52 C 310.70 363.41 303.98 371.08 296.11 377.18 C 287.78 383.77 278.38 388.79 269.04 393.74 C 254.53 401.05 239.97 408.25 225.40 415.44 C 222.94 416.62 220.58 418.37 219.45 420.93 C 217.74 425.07 218.93 429.67 220.43 433.68 C 221.85 437.48 225.16 440.51 229.14 441.40 C 234.39 442.91 239.78 441.23 244.93 440.13 C 261.45 436.08 277.43 430.01 292.82 422.81 C 310.66 414.23 328.06 404.18 342.65 390.67 C 350.69 383.13 358.03 374.36 361.74 363.84 C 364.65 354.88 365.32 345.37 365.30 336.00 C 365.15 315.33 361.62 294.80 356.30 274.87 C 352.91 262.92 348.94 251.04 343.01 240.08 C 340.08 234.90 336.89 229.51 331.86 226.11 C 329.88 224.42 327.43 225.78 325.49 226.72 M 185.07 269.99 C 181.10 280.84 180.57 292.92 183.96 304.00 C 187.08 314.42 193.06 323.75 200.10 331.95 C 203.49 335.84 207.19 339.43 210.67 343.24 C 204.58 346.47 198.45 349.68 192.87 353.76 C 178.02 364.48 164.52 377.70 155.87 394.01 C 148.99 406.80 145.68 421.56 147.08 436.06 C 148.84 455.58 157.99 473.54 169.31 489.22 C 230.17 489.18 291.03 489.21 351.88 489.20 C 345.98 464.35 340.23 439.37 337.37 413.96 C 322.22 424.54 305.98 433.54 288.99 440.82 C 273.64 447.33 257.83 453.00 241.44 456.25 C 231.55 458.32 220.34 456.32 212.96 449.06 C 206.02 442.11 202.99 431.78 203.80 422.12 C 204.49 413.51 210.36 405.97 218.01 402.26 C 234.12 394.35 250.22 386.41 266.21 378.25 C 279.16 371.27 292.58 363.35 300.37 350.39 C 304.07 345.03 303.46 338.20 303.48 332.02 C 302.88 316.79 300.60 301.70 299.21 286.53 C 297.79 270.31 296.78 253.69 300.56 237.69 C 284.75 243.22 267.79 246.61 251.03 244.38 C 238.37 242.72 226.02 237.36 216.90 228.31 C 203.31 239.47 191.19 253.28 185.07 269.99 Z" />
</g>
</svg>
