<?xml version="1.0" encoding="iso-8859-1"?>
<!-- Generator: Adobe Illustrator 19.0.0, SVG Export Plug-In . SVG Version: 6.00 Build 0)  -->
<svg xmlns="http://www.w3.org/2000/svg" xmlns:xlink="http://www.w3.org/1999/xlink" version="1.1" id="Layer_1" x="0px" y="0px" viewBox="0 0 406.001 406.001" style="enable-background:new 0 0 406.001 406.001;" xml:space="preserve" width="100px" height="100px">
<g>
	<g>
		<g>
			<path d="M125.266,329.48c0,8.028,3.256,15.889,8.94,21.574c5.68,5.666,13.539,8.916,21.56,8.916s15.88-3.25,21.567-8.924     c5.677-5.677,8.933-13.538,8.933-21.566c0-8.042-3.258-15.905-8.933-21.567c-5.678-5.677-13.539-8.933-21.567-8.933     s-15.889,3.256-21.56,8.927C128.524,313.576,125.266,321.439,125.266,329.48z M145.513,319.228     c2.699-2.699,6.437-4.247,10.253-4.247c3.817,0,7.554,1.548,10.26,4.253c2.695,2.688,4.24,6.424,4.24,10.247     c0,3.817-1.548,7.555-4.24,10.246c-2.704,2.697-6.443,4.244-10.26,4.244c-3.816,0-7.556-1.547-10.252-4.236     c-2.699-2.7-4.248-6.438-4.248-10.254C141.266,325.657,142.812,321.923,145.513,319.228z" fill="#0071b7"/>
			<path d="M77.648,222.646c-3.895,0-7.715,0.74-11.356,2.202c-15.605,6.274-23.205,24.072-16.938,39.678     c4.673,11.624,15.787,19.135,28.313,19.135c3.913,0,7.74-0.744,11.361-2.206c7.56-3.035,13.484-8.833,16.682-16.325     c3.198-7.491,3.287-15.78,0.251-23.34C101.29,230.16,90.177,222.646,77.648,222.646z M90.993,258.848     c-1.52,3.561-4.335,6.316-7.942,7.765c-1.723,0.695-3.534,1.048-5.385,1.048c-5.958,0-11.244-3.573-13.466-9.101     c-2.979-7.418,0.637-15.882,8.057-18.865c1.734-0.696,3.547-1.049,5.391-1.049c5.958,0,11.243,3.574,13.464,9.106     C92.555,251.346,92.513,255.286,90.993,258.848z" fill="#0071b7"/>
			<path d="M94.906,116.667c-4.205-2.046-8.694-3.084-13.343-3.084c-11.766,0-22.279,6.567-27.437,17.14     c-0.064,0.131-0.124,0.264-0.181,0.397c-3.399,7.225-3.839,15.342-1.23,22.907c2.657,7.702,8.153,13.909,15.467,17.47     c4.198,2.053,8.691,3.094,13.354,3.094c11.765,0,22.276-6.569,27.433-17.147C116.333,142.322,110.025,124.03,94.906,116.667z      M94.585,150.435c-2.453,5.031-7.453,8.156-13.049,8.156c-2.206,0-4.334-0.493-6.337-1.473c-3.481-1.695-6.094-4.646-7.357-8.307     s-1.023-7.594,0.674-11.073c0.044-0.091,0.086-0.182,0.127-0.273c2.5-4.87,7.423-7.882,12.92-7.882     c2.203,0,4.337,0.495,6.34,1.47C95.088,134.552,98.085,143.248,94.585,150.435z" fill="#0071b7"/>
			<path d="M288.933,61.689c-4.803-2.941-10.307-4.496-15.917-4.496c-10.709,0-20.438,5.447-26.021,14.567     c-8.785,14.335-4.269,33.149,10.074,41.944c4.806,2.941,10.306,4.496,15.906,4.496c10.705,0,20.436-5.446,26.033-14.572     c4.254-6.948,5.551-15.137,3.65-23.056C300.757,72.649,295.883,65.943,288.933,61.689z M285.366,95.269     c-2.662,4.34-7.293,6.932-12.39,6.932c-2.651,0-5.264-0.741-7.548-2.139c-6.818-4.182-8.967-13.127-4.789-19.943     c2.655-4.337,7.282-6.926,12.378-6.926c2.66,0,5.274,0.74,7.562,2.141c3.302,2.022,5.618,5.209,6.522,8.974     C288.004,88.072,287.387,91.967,285.366,95.269z" fill="#0071b7"/>
			<path d="M164.829,42.993c-2.919,0-5.83,0.423-8.649,1.255c-7.814,2.308-14.261,7.52-18.153,14.676     c-3.89,7.154-4.762,15.398-2.455,23.213c3.802,12.873,15.823,21.864,29.234,21.864c2.92,0,5.833-0.424,8.656-1.258     c7.814-2.308,14.261-7.52,18.152-14.676c3.891-7.154,4.762-15.397,2.454-23.214C190.264,51.982,178.241,42.993,164.829,42.993z      M177.558,80.424c-1.849,3.4-4.913,5.877-8.63,6.975c-1.352,0.4-2.738,0.603-4.122,0.603c-6.37,0-12.081-4.274-13.888-10.396     c-1.098-3.717-0.684-7.638,1.166-11.038c1.849-3.4,4.913-5.877,8.628-6.974c1.348-0.398,2.733-0.601,4.117-0.601     c6.372,0,12.086,4.274,13.895,10.394C179.821,73.104,179.407,77.023,177.558,80.424z" fill="#0071b7"/>
			<path d="M305.046,177.32c0,8.043,3.258,15.906,8.933,21.566c5.677,5.678,13.538,8.934,21.567,8.934s15.89-3.256,21.566-8.933     c5.678-5.676,8.934-13.537,8.934-21.567c0-8.028-3.256-15.89-8.94-21.574c-5.687-5.672-13.545-8.926-21.56-8.926     c-8.015,0-15.874,3.254-21.567,8.934C308.302,161.431,305.046,169.292,305.046,177.32z M325.286,167.074     c2.71-2.703,6.45-4.254,10.26-4.254s7.55,1.551,10.253,4.247c2.699,2.699,4.247,6.436,4.247,10.253s-1.548,7.555-4.248,10.254     c-2.698,2.698-6.435,4.246-10.252,4.246s-7.555-1.548-10.26-4.254c-2.694-2.688-4.24-6.422-4.24-10.246     C321.046,173.503,322.594,169.766,325.286,167.074z" fill="#0071b7"/>
			<path d="M202.917,0.001C148.711,0.022,97.753,21.148,59.43,59.485C21.106,97.824,0,148.792,0,203.001     c0,111.935,91.065,203,203,203h0.208c0.003,0,0.006,0,0.009,0c7.074-0.008,13.639-3.22,18.012-8.813     c4.386-5.609,5.923-12.78,4.218-19.674c-2.081-8.414-3.127-17.116-3.112-25.866c0.04-22.715,7.282-43.813,19.54-61.143     l82.408,82.408c6.385,6.384,14.771,9.576,23.158,9.576c8.387,0,16.773-3.192,23.158-9.576l0.354-0.354     c6.186-6.186,9.592-14.41,9.592-23.157c0-8.748-3.407-16.973-9.592-23.158l-75.584-75.584c10.383-3.47,21.463-5.387,32.966-5.454     l0.636-0.002c14.725,0,28.982,2.944,42.375,8.75c2.923,1.268,6.002,1.91,9.153,1.91c11.307,0,20.867-8.111,22.731-19.287     c1.861-11.157,2.793-22.586,2.771-33.97C405.786,90.89,314.721,0.001,202.917,0.001z M359.638,337.558     c3.164,3.163,4.906,7.369,4.906,11.844c0,4.474-1.742,8.681-4.906,11.844l-0.354,0.354c-6.531,6.53-17.158,6.532-23.688,0     L223.233,249.236c5.269-2.374,10.114-5.682,14.237-9.805c4.123-4.123,7.431-8.968,9.805-14.237L359.638,337.558z      M207.048,237.292c-1.169,0.129-2.359,0.194-3.536,0.194c-8.539,0-16.569-3.328-22.611-9.37     c-8.537-8.536-13.629-38.721-15.459-60.716c21.988,1.824,52.165,6.912,60.714,15.462c6.903,6.903,10.247,16.434,9.174,26.148     c-0.805,7.303-3.978,13.909-9.175,19.106C220.96,233.314,214.353,236.486,207.048,237.292z M387.446,233.943     c-0.648,3.887-3.986,5.92-6.949,5.92c-0.948,0-1.886-0.198-2.789-0.59c-15.414-6.683-31.812-10.07-48.739-10.07l-0.729,0.002     c-16.001,0.094-31.289,3.3-45.306,9.021l-31.444-31.444c0.371-13.163-4.611-25.825-14.021-35.235     c-17.317-17.317-73.849-20.422-80.238-20.719c-2.25-0.107-4.437,0.743-6.028,2.334c-1.592,1.592-2.439,3.78-2.334,6.028     c0.297,6.39,3.401,62.921,20.719,80.239c9.064,9.063,21.112,14.056,33.924,14.056c0.435,0,0.872-0.024,1.308-0.036l25.604,25.604     c-15.082,20.34-24.042,45.455-24.089,72.567c-0.018,10.052,1.187,20.056,3.58,29.734c0.517,2.089,0.046,4.268-1.291,5.978     c-1.324,1.693-3.301,2.666-5.425,2.668H203C99.888,390.001,16,306.113,16,203.001c0-103.071,83.854-186.959,186.999-187     c102.916,0,186.804,83.725,187,186.637C390.02,213.131,389.161,223.664,387.446,233.943z" fill="#0071b7"/>
		</g>
	</g>
</g>
</svg>
