<?xml version="1.0" encoding="UTF-8" ?>
<!DOCTYPE svg PUBLIC "-//W3C//DTD SVG 1.1//EN" "http://www.w3.org/Graphics/SVG/1.1/DTD/svg11.dtd">
<svg width="90px" height="90px" viewBox="0 0 514 514" version="1.1" xmlns="http://www.w3.org/2000/svg">
<g id="#0072b8ff">
<path fill="#0072b8" opacity="1.00" d=" M 251.36 0.96 C 255.39 0.90 259.42 0.93 263.45 0.93 C 263.46 18.30 263.46 35.67 263.45 53.04 C 259.42 53.04 255.39 53.06 251.35 53.01 C 251.37 35.66 251.37 18.31 251.36 0.96 Z" />
<path fill="#0072b8" opacity="1.00" d=" M 136.33 34.54 C 139.82 32.42 143.37 30.42 146.92 28.39 C 155.49 43.46 164.24 58.44 172.90 73.46 C 169.35 75.58 165.87 77.84 162.11 79.58 C 161.58 78.37 161.08 77.17 160.41 76.04 C 152.30 62.25 144.49 48.30 136.33 34.54 Z" />
<path fill="#0072b8" opacity="1.00" d=" M 341.54 74.00 C 350.35 59.02 358.82 43.83 367.72 28.89 C 371.24 30.81 374.69 32.85 378.14 34.90 C 369.58 49.99 360.79 64.96 352.16 80.01 C 348.57 78.09 345.10 75.97 341.54 74.00 Z" />
<path fill="#0072b8" opacity="1.00" d=" M 191.90 90.66 C 214.46 80.56 239.28 75.34 264.03 76.27 C 300.66 77.42 336.46 92.85 362.96 118.07 C 378.56 133.10 391.81 150.97 399.85 171.19 C 403.47 180.68 406.23 190.76 405.83 201.01 C 405.83 208.35 405.81 215.69 405.81 223.03 C 405.68 224.49 406.21 225.86 406.81 227.15 C 419.06 254.44 431.25 281.75 443.49 309.03 C 432.82 309.43 422.15 309.51 411.48 309.80 C 411.91 325.55 412.71 341.29 413.00 357.04 C 412.83 369.55 402.91 381.87 390.05 382.65 C 376.13 382.58 362.20 382.68 348.27 382.58 C 348.33 405.83 348.22 429.07 348.32 452.32 C 290.93 452.23 233.54 452.30 176.15 452.29 C 176.11 442.86 176.29 433.44 176.05 424.02 C 175.33 403.30 168.32 383.32 158.80 365.08 C 146.31 340.25 129.00 318.02 118.64 292.09 C 108.13 264.82 102.67 235.09 106.44 205.90 C 109.94 177.14 123.31 150.13 142.13 128.32 C 155.69 112.30 173.07 99.79 191.90 90.66 M 235.95 90.08 C 218.26 92.66 200.79 98.08 185.56 107.57 C 153.60 125.54 129.71 157.08 120.83 192.63 C 114.07 220.13 116.67 249.23 124.87 276.12 C 127.63 285.76 131.25 295.18 136.22 303.91 C 148.47 326.18 163.79 346.76 174.05 370.12 C 181.97 387.68 187.01 406.70 187.41 426.02 C 187.48 430.99 187.49 435.96 187.42 440.94 C 237.00 440.95 286.58 440.91 336.16 440.95 C 336.16 417.76 336.16 394.56 336.16 371.36 C 353.44 371.33 370.73 371.42 388.00 371.32 C 395.38 371.11 401.05 364.15 400.88 357.00 C 400.23 337.78 399.30 318.56 398.52 299.34 C 407.03 299.17 415.54 298.65 424.05 298.58 C 413.76 275.06 403.30 251.61 392.88 228.14 C 393.09 218.76 392.80 209.38 392.97 200.00 C 393.13 194.55 392.02 189.18 390.59 183.97 C 385.31 165.86 374.80 149.66 362.31 135.69 C 343.57 114.58 318.51 98.96 291.03 92.23 C 273.07 87.77 254.20 87.10 235.95 90.08 Z" />
<path fill="#0072b8" opacity="1.00" d=" M 60.07 111.30 C 75.42 119.50 90.11 128.97 105.51 137.07 C 103.46 140.66 101.40 144.24 99.26 147.79 C 84.30 138.94 69.06 130.55 54.19 121.54 C 56.27 118.19 58.28 114.81 60.07 111.30 Z" />
<path fill="#0072b8" opacity="1.00" d=" M 408.79 137.04 C 423.92 128.47 438.78 119.42 454.04 111.10 C 455.83 114.76 458.37 118.03 459.84 121.85 C 444.62 130.04 429.80 139.00 414.83 147.65 C 412.84 144.10 410.75 140.60 408.79 137.04 Z" />
<path fill="#0072b8" opacity="1.00" d=" M 215.38 132.70 C 216.82 123.39 225.55 115.94 235.00 116.18 C 247.15 115.58 257.54 127.15 257.07 139.01 C 257.05 199.35 257.10 259.69 257.05 320.03 C 257.25 329.87 249.48 339.03 239.84 340.70 C 231.20 342.39 221.46 338.22 217.73 330.01 C 209.00 333.57 198.19 333.38 190.51 327.47 C 184.20 322.47 179.08 315.06 179.32 306.70 C 173.17 303.58 167.47 299.26 163.54 293.52 C 155.66 282.77 153.71 267.66 159.23 255.45 C 155.09 253.68 151.29 251.07 148.43 247.56 C 139.86 237.63 139.46 221.70 147.47 211.33 C 149.54 208.44 152.36 206.24 155.18 204.13 C 149.85 193.43 150.00 180.04 156.53 169.88 C 162.51 159.96 174.14 153.96 185.67 154.54 C 186.33 148.02 189.11 141.54 194.29 137.36 C 200.06 132.53 208.14 131.28 215.38 132.70 M 225.13 136.01 C 225.06 138.19 226.27 140.07 227.17 141.97 C 223.93 144.06 220.86 146.38 217.95 148.90 C 214.44 143.33 206.03 141.54 200.86 145.82 C 196.76 149.08 196.05 154.68 196.22 159.58 C 193.80 161.88 191.47 164.27 189.10 166.62 C 184.01 166.46 178.63 166.56 174.09 169.18 C 165.15 173.66 160.39 185.01 163.65 194.49 C 165.41 199.86 169.17 205.07 174.60 207.10 C 173.32 210.83 171.34 214.25 169.87 217.90 C 166.77 217.03 164.26 214.97 161.81 212.98 C 155.87 215.85 151.84 222.38 152.32 229.02 C 152.32 236.13 157.46 242.99 164.35 244.83 C 168.21 240.12 173.09 235.97 178.92 233.99 C 181.62 236.80 182.32 241.50 184.31 245.02 C 172.15 249.46 164.28 263.40 167.26 276.09 C 169.70 288.72 181.73 298.67 194.63 298.56 C 194.61 302.62 194.64 306.68 194.61 310.75 C 193.65 310.54 191.71 310.12 190.74 309.91 C 193.10 318.63 204.10 323.02 211.94 318.88 C 215.98 316.87 218.55 312.68 219.23 308.30 C 223.39 308.45 227.48 309.34 231.62 309.72 C 230.58 313.84 228.92 317.78 226.59 321.34 C 227.35 323.89 228.56 326.55 231.04 327.86 C 234.96 330.06 241.54 328.91 242.51 323.89 C 242.58 312.95 242.50 302.00 242.53 291.06 C 241.72 281.40 233.64 271.85 223.36 272.24 C 223.36 268.19 223.38 264.14 223.35 260.09 C 230.36 260.08 237.14 262.78 242.53 267.19 C 242.54 249.92 242.51 232.65 242.55 215.38 C 235.44 214.50 228.42 219.49 227.36 226.65 C 223.60 225.55 219.82 224.55 216.08 223.41 C 218.08 216.83 221.72 210.35 227.79 206.76 C 232.31 204.38 237.45 203.36 242.53 203.34 C 242.50 191.00 242.59 178.67 242.48 166.34 C 239.63 166.98 237.47 168.97 236.06 171.46 C 232.63 169.59 229.24 167.65 225.76 165.89 C 229.36 160.10 235.49 155.45 242.53 155.30 C 242.52 148.85 242.56 142.39 242.50 135.94 C 242.52 131.47 238.51 127.47 234.05 127.47 C 229.41 127.15 225.02 131.37 225.13 136.01 Z" />
<path fill="#0072b8" opacity="1.00" d=" M 261.55 132.02 C 263.76 123.33 271.95 116.37 281.00 116.17 C 290.77 115.57 300.17 123.13 301.84 132.74 C 308.10 131.47 314.95 132.14 320.45 135.56 C 327.06 139.47 330.86 147.01 331.50 154.50 C 347.93 153.51 363.17 166.76 365.44 182.86 C 366.62 190.13 365.18 197.57 361.97 204.13 C 370.72 209.02 376.16 218.98 375.52 228.98 C 375.76 240.52 368.35 251.41 357.99 256.21 C 364.28 270.12 360.78 287.39 350.37 298.37 C 346.84 302.26 342.35 305.08 337.81 307.64 C 337.89 318.07 330.89 328.08 321.10 331.64 C 314.34 334.24 306.81 333.18 300.11 330.96 C 296.25 338.03 288.15 342.58 280.07 341.76 C 269.98 341.05 261.45 332.09 260.89 322.05 C 260.90 263.37 260.88 204.68 260.90 146.00 C 260.96 141.34 260.48 136.60 261.55 132.02 M 272.38 134.90 C 272.12 141.70 272.42 148.51 272.28 155.31 C 279.41 155.11 285.46 159.83 289.13 165.58 C 285.65 167.62 282.23 169.99 278.34 171.15 C 277.30 168.63 274.90 167.26 272.51 166.27 C 272.00 178.62 272.47 191.00 272.27 203.37 C 277.39 203.14 282.74 203.80 287.07 206.76 C 293.13 210.40 296.67 216.88 298.79 223.42 C 294.94 224.48 291.14 225.72 287.23 226.57 C 286.31 223.55 285.17 220.38 282.66 218.29 C 279.91 215.67 275.84 215.52 272.27 215.36 C 272.30 232.64 272.34 249.92 272.25 267.20 C 277.60 262.68 284.46 260.09 291.47 260.08 C 291.46 264.14 291.47 268.21 291.49 272.28 C 281.14 271.89 274.13 281.84 272.34 291.01 C 272.21 300.68 272.34 310.36 272.30 320.04 C 272.04 325.08 277.07 329.67 282.10 328.85 C 286.19 328.65 289.69 325.22 289.79 321.09 C 287.22 317.79 285.80 313.81 284.86 309.77 C 288.90 309.21 292.93 308.53 296.99 308.18 C 298.97 316.94 309.63 323.03 317.93 318.85 C 321.74 317.27 324.16 313.78 325.85 310.18 C 324.46 310.38 323.07 310.56 321.68 310.75 C 321.71 306.68 321.70 302.62 321.63 298.55 C 335.98 298.78 349.16 286.41 349.64 272.04 C 350.47 260.49 342.86 249.19 332.16 245.03 C 333.63 241.17 335.46 237.45 336.94 233.59 C 342.76 236.26 348.11 240.01 352.25 244.93 C 356.78 243.32 360.88 239.88 362.27 235.16 C 364.26 226.80 360.84 217.18 353.03 213.06 C 350.41 214.81 347.74 216.52 344.91 217.91 C 343.46 214.27 341.35 210.91 340.28 207.12 C 347.06 204.26 351.43 197.08 351.99 189.88 C 352.86 181.35 347.95 172.58 340.20 168.91 C 335.77 166.58 330.65 166.46 325.77 166.66 C 323.47 164.29 321.02 162.08 318.79 159.65 C 318.16 157.17 318.79 154.46 317.97 151.98 C 317.11 148.05 314.01 144.48 309.94 143.80 C 305.05 142.50 299.57 144.66 296.86 148.92 C 293.75 146.51 290.84 143.84 287.37 141.95 C 291.72 137.86 289.62 129.90 284.11 128.04 C 279.18 125.88 272.92 129.57 272.38 134.90 Z" />
<path fill="#0072b8" opacity="1.00" d=" M 196.31 188.10 C 203.80 182.02 214.24 180.15 223.52 182.50 C 222.66 186.49 221.83 190.50 221.13 194.52 C 213.19 192.66 202.90 195.33 199.98 203.71 C 195.71 203.62 192.02 200.72 188.05 199.35 C 190.08 195.15 192.60 191.03 196.31 188.10 Z" />
<path fill="#0072b8" opacity="1.00" d=" M 293.70 182.53 C 307.27 178.77 323.73 185.10 329.00 198.68 C 325.26 200.24 321.53 201.83 317.85 203.51 C 314.13 195.33 304.45 192.33 296.09 193.71 C 295.30 189.98 294.49 186.26 293.70 182.53 Z" />
<path fill="#0072b8" opacity="1.00" d=" M 25.82 225.82 C 43.14 225.74 60.47 225.87 77.80 225.76 C 77.79 229.77 77.80 233.78 77.79 237.79 C 60.45 237.81 43.10 237.79 25.76 237.80 C 25.81 233.80 25.80 229.81 25.82 225.82 Z" />
<path fill="#0072b8" opacity="1.00" d=" M 435.41 237.81 C 435.40 233.79 435.38 229.78 435.44 225.76 C 452.75 225.92 470.06 225.71 487.37 225.86 C 487.38 229.84 487.41 233.83 487.38 237.81 C 470.06 237.82 452.73 237.82 435.41 237.81 Z" />
<path fill="#0072b8" opacity="1.00" d=" M 191.21 253.04 C 195.03 253.86 198.74 255.10 202.53 256.08 C 202.49 257.85 202.47 259.62 202.49 261.39 C 203.00 266.44 206.23 270.70 210.69 273.00 C 208.39 276.31 206.72 280.06 204.12 283.13 C 193.54 277.71 188.78 264.36 191.21 253.04 Z" />
<path fill="#0072b8" opacity="1.00" d=" M 314.63 256.10 C 318.77 255.16 322.78 253.60 327.03 253.19 C 328.89 264.54 324.47 277.63 313.90 283.15 C 311.27 280.09 309.58 276.33 307.30 273.01 C 313.00 269.52 315.72 262.61 314.63 256.10 Z" />
<path fill="#0072b8" opacity="1.00" d=" M 54.14 341.87 C 69.21 333.24 84.17 324.43 99.30 315.90 C 101.23 319.44 103.66 322.74 105.08 326.54 C 90.05 335.04 75.17 343.83 60.17 352.40 C 58.18 348.87 56.11 345.40 54.14 341.87 Z" />
<path fill="#0072b8" opacity="1.00" d=" M 191.33 472.95 C 238.83 472.94 286.33 472.91 333.82 472.97 C 333.82 476.99 333.82 481.01 333.82 485.03 C 286.33 485.06 238.84 485.12 191.36 485.01 C 191.36 480.98 191.39 476.97 191.33 472.95 Z" />
<path fill="#0072b8" opacity="1.00" d=" M 214.54 500.97 C 246.30 500.91 278.06 500.91 309.82 500.97 C 309.82 505.00 309.82 509.03 309.82 513.06 C 278.06 513.10 246.30 513.07 214.54 513.07 C 214.53 509.04 214.53 505.00 214.54 500.97 Z" />
</g>
</svg>
