<?xml version="1.0" encoding="UTF-8" ?>
<!DOCTYPE svg PUBLIC "-//W3C//DTD SVG 1.1//EN" "http://www.w3.org/Graphics/SVG/1.1/DTD/svg11.dtd">
<svg width="90px" height="90px" viewBox="0 0 486 486" version="1.1" xmlns="http://www.w3.org/2000/svg">
<g id="#0072b8ff">
<path fill="#0072b8" opacity="1.00" d=" M 222.18 0.00 L 227.53 0.00 C 230.66 0.91 233.25 2.97 235.20 5.51 C 235.52 6.30 235.87 7.08 236.24 7.86 C 236.46 9.93 236.62 12.04 236.21 14.11 C 232.97 30.90 233.94 48.34 238.06 64.89 C 239.11 69.59 240.71 74.13 242.14 78.73 C 245.36 90.23 242.24 102.28 238.20 113.15 C 235.39 119.29 232.25 125.28 229.25 131.34 C 225.44 138.20 220.95 144.78 218.17 152.17 C 217.81 153.16 217.44 154.16 217.06 155.15 C 216.35 156.66 216.44 158.36 216.32 159.98 C 218.05 161.57 219.83 163.24 222.16 163.88 C 229.82 166.38 235.81 172.65 239.17 179.84 C 239.72 181.54 240.39 183.19 241.08 184.84 C 241.35 185.87 241.68 186.88 242.07 187.88 C 243.63 191.59 244.36 196.47 248.50 198.25 C 258.85 201.56 269.77 202.56 280.13 205.86 C 281.74 206.68 283.43 207.37 285.24 207.65 C 286.66 208.93 288.18 210.12 289.43 211.57 C 292.44 215.55 293.24 220.95 291.99 225.73 C 290.39 230.13 287.22 233.83 283.37 236.46 C 274.83 243.15 264.35 246.55 255.25 252.33 C 255.66 260.28 256.76 268.16 257.50 276.08 C 257.68 278.39 259.60 280.23 261.55 281.24 C 266.84 282.90 272.47 282.25 277.89 283.18 C 285.92 283.75 293.99 283.85 302.04 283.61 C 306.80 283.57 311.27 281.55 316.04 281.54 C 327.03 281.05 338.96 281.31 348.37 287.79 C 359.73 295.21 365.33 308.14 371.20 319.83 C 372.03 322.97 373.93 325.66 375.16 328.64 C 399.38 314.89 423.99 301.85 448.23 288.14 C 452.81 285.21 458.87 286.70 462.39 290.59 C 464.00 293.89 463.95 297.62 463.32 301.17 C 460.50 305.77 455.23 307.54 450.79 310.10 C 429.04 322.40 406.85 333.94 385.13 346.27 C 382.38 347.26 379.97 349.16 376.99 349.46 C 373.22 350.08 369.34 349.66 365.78 348.29 C 363.56 346.50 361.00 345.05 359.25 342.74 C 356.24 338.92 354.00 334.57 351.88 330.22 C 350.71 326.55 348.60 323.29 346.97 319.82 C 343.47 313.81 340.00 307.16 333.82 303.50 C 324.24 299.89 313.88 302.44 304.05 303.35 C 291.36 303.91 278.61 303.91 265.97 302.61 C 258.29 302.24 250.63 299.35 245.02 294.02 C 241.40 290.54 239.58 285.72 237.87 281.12 C 236.09 273.37 236.36 265.35 235.12 257.53 C 233.97 252.63 233.49 246.96 236.35 242.54 C 238.69 238.50 242.79 235.99 246.56 233.46 C 253.27 229.39 260.35 225.99 267.30 222.39 C 264.53 222.16 261.87 221.33 259.17 220.75 C 252.33 219.44 245.31 218.50 238.87 215.72 C 234.68 213.95 231.38 210.67 228.50 207.23 C 224.59 201.74 223.30 194.99 220.90 188.81 C 219.99 186.38 218.67 183.97 216.50 182.47 C 214.70 181.52 212.66 181.17 210.83 180.31 C 207.25 177.92 203.48 175.67 200.67 172.35 C 197.96 168.85 196.11 164.61 195.70 160.18 C 195.25 155.61 196.72 151.18 197.88 146.83 C 200.22 139.83 204.71 133.87 207.88 127.25 C 215.38 115.44 221.85 102.24 222.31 87.99 C 222.23 83.19 220.32 78.69 218.79 74.22 C 218.46 72.47 218.06 70.74 217.60 69.02 C 212.55 49.38 212.11 28.67 215.79 8.75 C 217.65 3.17 223.25 -1.25 229.64 0.88 L 222.18 0.00 Z" />
<path fill="#0072b8" opacity="1.00" d=" M 106.86 93.85 C 109.78 86.95 117.62 81.38 125.26 83.83 C 130.50 85.64 135.09 90.00 136.64 95.38 L 137.27 95.49 C 138.71 102.60 139.04 109.95 137.59 117.09 C 134.80 132.44 131.75 147.73 128.98 163.08 C 128.06 168.15 126.73 173.16 126.22 178.29 C 124.33 182.09 121.04 186.71 116.17 185.91 C 112.31 185.37 109.95 181.92 107.60 179.18 C 107.70 174.69 109.02 170.38 109.65 165.97 C 112.75 150.36 115.50 134.68 118.60 119.07 C 119.26 115.92 119.55 112.71 119.83 109.51 C 118.74 112.45 117.29 115.24 116.15 118.17 C 111.76 127.13 107.41 136.14 103.19 145.19 C 96.31 159.57 89.05 173.76 82.23 188.17 C 75.27 202.20 68.04 216.10 61.13 230.16 C 60.87 230.65 60.36 231.64 60.10 232.14 C 59.85 232.63 59.35 233.63 59.10 234.13 C 58.87 234.63 58.41 235.63 58.18 236.14 C 55.19 240.48 53.90 245.64 51.34 250.20 C 48.62 256.12 45.96 262.08 44.12 268.34 C 39.70 281.25 38.31 296.11 44.19 308.79 C 45.47 313.25 48.26 317.08 49.70 321.48 C 52.19 326.93 54.60 332.42 57.21 337.82 C 62.35 350.49 68.04 362.96 73.51 375.50 C 74.04 376.61 74.30 377.91 75.21 378.81 C 75.92 381.61 77.37 384.13 78.40 386.81 C 81.57 393.38 84.03 400.28 87.22 406.84 C 88.45 411.46 90.96 415.58 92.64 420.03 C 92.96 420.88 93.60 422.59 93.92 423.44 C 88.06 423.41 82.20 423.45 76.34 423.34 C 76.43 427.55 76.42 431.76 76.41 435.97 C 102.49 452.20 132.25 462.71 162.88 465.47 C 165.04 465.82 167.65 464.90 169.38 466.59 C 169.94 452.70 170.32 438.79 170.42 424.88 C 164.59 424.62 158.76 424.46 152.93 424.27 C 153.39 422.08 154.07 419.96 154.78 417.85 C 159.04 407.74 161.43 396.86 162.36 385.95 C 162.75 375.16 161.04 364.15 156.83 354.18 C 152.15 339.88 141.71 328.68 132.93 316.82 C 129.92 312.11 127.18 307.21 124.89 302.11 C 118.29 287.69 116.19 271.60 116.81 255.86 C 117.45 250.58 117.34 245.23 118.29 239.99 C 119.47 232.09 120.34 223.84 117.94 216.07 C 117.75 214.94 116.89 214.16 116.23 213.30 C 112.70 215.32 111.78 219.53 110.56 223.08 C 108.84 228.29 108.37 233.79 107.02 239.09 C 103.54 257.11 100.92 275.63 103.24 293.97 C 103.77 301.36 104.61 308.73 105.21 316.12 C 105.43 320.04 102.49 323.50 99.15 325.17 C 95.72 326.17 91.29 326.21 88.78 323.26 C 85.60 320.49 86.65 315.92 86.13 312.21 C 85.34 306.51 85.64 300.73 85.02 295.01 C 83.33 275.94 85.14 256.74 88.61 237.96 C 89.90 232.97 90.86 227.91 91.86 222.86 C 94.25 214.74 97.17 206.15 103.81 200.49 C 110.76 194.59 122.27 193.20 129.42 199.48 C 135.83 204.64 138.35 213.08 138.80 221.01 C 139.82 227.60 138.79 234.24 138.22 240.83 C 135.97 254.45 135.28 268.60 138.67 282.10 C 139.39 284.71 139.82 287.45 141.15 289.85 C 142.87 295.35 145.41 300.63 148.85 305.28 C 155.84 316.45 165.83 325.65 171.32 337.79 C 175.99 347.67 179.38 358.19 181.01 369.01 C 182.90 382.27 181.32 395.79 178.13 408.73 C 182.68 410.40 186.27 414.35 187.53 419.02 C 188.73 422.55 188.39 426.33 188.35 429.99 C 188.32 440.33 187.66 450.66 187.70 461.01 C 187.46 469.34 187.97 477.75 186.53 486.00 L 186.17 486.00 C 180.44 485.31 174.73 484.43 168.95 484.30 C 160.19 483.75 151.48 482.69 142.84 481.13 C 124.59 477.57 106.73 471.98 89.85 464.18 C 81.02 459.90 72.43 455.15 64.16 449.87 C 61.15 447.85 58.84 444.74 57.86 441.26 C 57.28 437.53 57.64 433.74 57.58 429.99 C 57.65 425.22 57.11 420.29 58.82 415.73 C 59.58 413.13 61.23 410.94 62.77 408.76 C 64.01 407.85 65.26 406.95 66.54 406.11 C 63.76 401.44 62.38 395.98 59.80 391.16 C 58.16 386.36 55.93 381.77 53.82 377.15 C 51.38 370.71 48.21 364.56 45.51 358.22 C 40.53 347.24 35.88 336.11 30.90 325.12 C 29.36 320.99 26.78 317.27 25.91 312.89 C 23.97 306.77 22.46 300.50 21.73 294.11 C 20.93 284.90 22.99 275.79 24.86 266.83 C 27.77 257.34 31.05 247.93 35.36 238.97 C 36.91 234.93 39.36 231.33 41.29 227.48 C 44.89 220.41 48.51 213.35 52.18 206.31 C 53.17 204.43 54.38 202.61 54.72 200.48 L 55.69 200.30 C 55.65 199.94 55.59 199.20 55.55 198.84 C 55.87 198.34 56.51 197.34 56.83 196.84 C 57.05 196.27 57.49 195.12 57.71 194.54 L 58.76 194.26 C 58.69 193.92 58.57 193.23 58.51 192.89 C 59.39 192.00 60.07 190.94 60.58 189.81 C 65.38 180.17 70.35 170.60 74.83 160.80 C 83.41 143.61 91.74 126.27 99.87 108.86 C 102.17 103.84 104.79 98.96 106.86 93.85 Z" />
</g>
</svg>
