<?xml version="1.0" encoding="UTF-8" ?>
<!DOCTYPE svg PUBLIC "-//W3C//DTD SVG 1.1//EN" "http://www.w3.org/Graphics/SVG/1.1/DTD/svg11.dtd">
<svg width="90px" height="90px" viewBox="0 0 504 504" version="1.1" xmlns="http://www.w3.org/2000/svg">
<g id="#0072b8ff">
<path fill="#0072b8" opacity="1.00" d=" M 236.82 2.96 C 247.66 -0.52 259.54 -0.07 270.21 3.83 C 274.30 5.62 278.28 7.65 282.18 9.82 C 287.68 13.73 293.05 17.84 297.75 22.71 C 300.04 21.72 302.38 20.85 304.73 20.00 C 305.77 19.67 306.81 19.34 307.85 19.01 C 320.54 15.12 334.57 14.24 347.20 18.87 C 354.80 21.92 361.68 26.78 367.11 32.92 C 372.23 38.25 375.56 44.86 379.43 51.06 L 379.06 52.24 C 379.31 52.25 379.81 52.28 380.06 52.30 C 380.55 54.09 381.25 55.82 382.00 57.53 C 395.51 57.31 409.49 59.70 421.08 66.98 C 430.15 72.47 436.91 81.13 441.13 90.78 C 444.93 100.70 446.51 111.32 446.44 121.92 C 453.33 124.94 460.08 128.39 466.16 132.85 C 468.56 134.76 470.83 136.83 473.16 138.83 C 478.89 144.83 483.60 151.85 486.04 159.84 C 490.66 175.21 487.49 191.79 481.27 206.24 C 482.19 207.13 483.12 208.03 484.04 208.93 C 486.89 212.11 489.56 215.42 492.19 218.78 C 493.86 221.46 495.53 224.14 497.09 226.89 C 497.70 228.24 498.37 229.55 499.10 230.84 C 504.59 243.23 504.96 257.55 500.19 270.22 C 497.86 275.91 494.66 281.16 491.15 286.18 C 488.03 290.08 484.94 294.02 481.30 297.44 C 488.38 313.53 491.11 332.56 484.13 349.18 C 478.69 360.79 469.01 369.74 458.06 376.13 C 455.44 377.46 452.82 378.79 450.20 380.12 C 448.95 380.60 447.70 381.09 446.47 381.59 C 446.56 390.31 445.35 399.00 443.07 407.41 C 442.74 408.34 442.43 409.29 442.14 410.24 C 438.63 418.90 433.63 427.27 426.10 433.01 C 421.96 436.48 417.12 438.95 412.23 441.18 C 402.50 444.94 392.04 445.76 381.75 446.37 C 376.00 461.45 365.75 475.59 351.12 483.08 C 336.99 490.00 320.41 488.64 305.77 484.10 C 303.12 483.00 300.42 482.04 297.76 480.99 C 287.85 490.86 275.85 499.48 261.89 502.23 C 252.88 504.14 243.39 503.23 234.76 500.09 C 224.11 496.01 214.64 489.20 206.73 481.05 C 202.90 482.40 199.11 483.89 195.20 485.03 C 178.82 489.84 159.67 489.08 145.69 478.38 C 139.12 473.95 134.37 467.53 129.85 461.15 C 127.26 456.23 124.37 451.44 122.46 446.20 C 114.16 445.97 105.83 445.30 97.81 443.02 C 96.80 442.68 95.78 442.35 94.76 442.04 C 93.09 441.42 91.44 440.78 89.77 440.16 C 81.44 436.41 74.38 430.41 68.83 423.21 C 66.10 418.77 63.75 414.12 61.85 409.27 C 59.08 400.27 57.90 390.90 57.80 381.51 C 43.91 375.99 30.70 367.15 22.87 354.12 C 21.80 352.19 20.81 350.23 19.89 348.23 C 14.76 335.72 15.32 321.58 18.97 308.76 C 19.90 305.77 20.87 302.79 21.99 299.86 C 22.32 299.01 22.65 298.15 22.97 297.29 C 21.59 296.04 20.29 294.71 19.07 293.31 L 19.02 293.57 C 14.52 287.69 9.62 282.02 6.56 275.20 C -0.54 261.91 -1.00 245.58 4.91 231.78 C 6.15 229.10 7.48 226.48 8.83 223.86 C 10.19 221.86 11.55 219.86 12.83 217.80 C 16.07 213.83 19.23 209.76 23.01 206.26 C 18.23 194.73 15.15 182.18 16.42 169.62 C 17.11 161.89 19.87 154.45 23.82 147.80 C 27.43 142.51 31.88 137.84 36.84 133.80 C 43.24 129.08 50.17 124.99 57.65 122.25 C 58.17 111.94 59.12 101.51 62.85 91.78 C 67.53 79.82 76.70 69.61 88.44 64.26 C 99.02 59.47 110.75 57.62 122.31 57.57 C 124.14 53.94 125.43 50.01 127.79 46.66 L 127.45 46.02 C 129.30 43.96 130.63 41.51 132.20 39.25 C 137.09 32.23 143.38 26.15 150.80 21.85 C 152.14 21.24 153.46 20.57 154.76 19.88 C 167.90 14.21 182.78 14.94 196.28 18.91 C 198.22 19.61 200.19 20.25 202.16 20.90 C 203.61 21.50 205.06 22.09 206.52 22.72 C 210.00 19.12 213.90 15.99 217.76 12.82 C 218.78 12.19 219.80 11.53 220.80 10.87 C 221.80 10.19 222.78 9.51 223.77 8.82 C 227.04 7.07 230.36 5.43 233.79 4.02 C 234.80 3.67 235.81 3.32 236.82 2.96 M 242.15 21.98 C 238.66 23.34 235.27 24.96 232.13 27.02 C 226.43 30.82 221.42 35.57 216.86 40.66 C 214.28 43.66 210.05 45.26 206.18 44.09 C 202.08 42.43 198.19 40.24 193.89 39.09 C 192.85 38.71 191.82 38.33 190.79 37.95 C 183.43 35.78 175.53 34.67 167.96 36.34 C 161.09 37.85 155.28 42.34 150.84 47.65 C 145.02 54.48 141.36 62.80 138.37 71.18 C 137.46 74.09 134.90 75.91 132.35 77.30 C 120.15 77.24 107.35 76.90 96.11 82.47 C 91.57 84.86 87.59 88.34 84.70 92.58 C 77.79 103.35 77.39 116.67 77.80 129.05 C 77.95 132.43 75.92 135.28 73.40 137.31 C 72.89 137.51 71.87 137.92 71.36 138.12 C 61.78 141.33 52.37 145.91 45.09 153.04 C 39.81 158.31 36.33 165.45 36.01 172.94 C 35.35 184.10 39.35 194.89 44.08 204.79 C 45.10 207.22 44.99 210.00 44.08 212.45 C 42.58 215.63 39.56 217.61 37.16 220.04 C 31.63 225.64 26.48 231.83 23.35 239.13 C 20.29 245.92 19.75 253.76 21.95 260.89 C 22.52 262.71 23.26 264.48 24.37 266.04 L 24.28 266.71 C 28.70 275.27 35.53 282.17 42.49 288.68 C 46.32 292.81 44.59 298.86 42.03 303.18 C 41.34 304.83 40.67 306.49 40.00 308.15 C 39.68 309.15 39.37 310.16 39.06 311.17 C 35.77 320.64 34.41 331.37 38.36 340.87 C 42.18 349.53 50.04 355.58 58.17 359.97 C 61.07 361.45 64.02 362.87 67.12 363.90 C 69.45 364.87 71.82 365.75 74.09 366.85 C 76.07 369.13 78.17 371.74 77.83 374.99 C 77.25 388.15 78.02 402.64 86.45 413.46 C 93.57 422.18 105.22 425.28 116.01 426.06 C 121.73 426.80 127.57 425.47 133.23 426.79 C 134.18 427.51 135.13 428.21 136.10 428.92 C 136.80 429.86 137.50 430.80 138.20 431.75 C 139.55 436.27 141.47 440.59 143.52 444.83 C 147.04 451.82 151.84 458.15 158.05 462.98 C 169.17 470.97 183.84 468.37 195.83 463.98 C 198.98 462.79 202.05 461.42 205.10 460.02 C 208.67 458.43 213.26 459.10 215.89 462.10 C 221.96 468.47 228.22 474.88 236.10 479.02 C 242.75 482.61 250.60 484.29 258.08 482.73 C 267.75 480.92 275.69 474.60 282.71 468.07 L 282.44 467.39 L 283.64 467.64 L 283.37 466.43 L 284.08 466.74 C 285.87 464.69 287.55 462.48 289.75 460.84 C 292.47 458.80 296.12 458.98 299.25 459.84 C 311.30 465.88 325.44 470.54 338.89 466.65 C 350.94 462.24 358.49 450.80 363.32 439.49 C 365.18 435.90 365.48 431.35 368.68 428.58 C 370.88 426.45 374.08 425.97 377.02 426.20 C 388.93 426.65 401.72 425.78 411.91 418.92 C 415.87 415.98 419.20 412.22 421.54 407.87 C 427.19 396.67 426.66 383.85 426.74 371.66 C 428.33 368.33 431.18 365.89 434.74 364.89 C 436.45 364.32 438.14 363.67 439.83 363.00 C 444.38 361.02 448.79 358.73 452.89 355.92 C 459.05 351.42 464.79 345.61 467.01 338.12 C 469.53 329.98 468.37 321.24 466.06 313.21 C 465.70 312.17 465.34 311.14 464.99 310.11 C 464.63 309.16 464.26 308.21 463.91 307.27 C 461.97 301.63 457.52 295.88 460.70 289.77 C 462.57 287.73 464.59 285.83 466.74 284.08 L 466.31 283.58 L 467.56 283.56 L 467.58 282.31 L 468.08 282.73 C 474.23 276.08 480.21 268.80 482.64 259.89 C 485.16 251.58 483.32 242.40 478.92 235.05 C 475.02 227.93 469.40 221.95 463.49 216.47 C 461.89 215.07 460.67 213.33 459.64 211.49 C 459.65 209.56 459.68 207.63 459.79 205.71 C 463.84 197.98 466.79 189.63 468.06 180.98 C 469.15 173.48 468.02 165.51 464.02 159.00 C 459.90 152.48 453.61 147.57 446.79 144.11 C 445.83 143.55 444.87 143.01 443.91 142.47 C 440.24 140.92 436.65 139.07 432.74 138.18 C 430.98 136.94 428.96 135.83 427.94 133.84 C 425.63 130.33 426.82 125.94 426.69 122.01 C 426.63 112.10 425.32 101.68 419.97 93.11 C 414.76 84.41 404.79 79.87 395.09 78.38 C 388.46 77.16 381.70 77.13 374.99 77.49 C 370.95 77.61 367.55 74.66 365.87 71.18 C 364.74 67.37 363.12 63.74 361.50 60.12 C 358.00 53.44 353.98 46.77 347.92 42.09 C 338.03 33.63 323.76 34.43 312.15 38.46 C 308.05 39.75 304.04 41.31 300.20 43.25 C 296.59 45.18 292.09 44.60 288.86 42.19 C 283.16 35.52 276.60 29.28 268.83 25.08 C 267.83 24.55 266.84 24.00 265.87 23.45 C 258.48 20.02 249.89 19.41 242.15 21.98 Z" />
<path fill="#0072b8" opacity="1.00" d=" M 157.76 175.89 C 169.04 172.68 181.35 174.52 191.24 180.78 C 193.23 182.44 195.15 184.17 197.10 185.88 C 204.85 193.53 208.88 204.54 208.27 215.39 C 207.06 218.26 205.06 220.68 202.36 222.27 C 199.45 222.87 196.25 223.16 193.56 221.64 C 189.95 219.93 188.45 215.67 188.46 211.91 C 188.05 204.82 183.38 198.09 176.65 195.62 C 167.39 191.41 155.56 196.23 151.60 205.52 C 149.13 210.10 151.37 216.39 146.96 220.02 C 142.27 225.09 132.63 222.87 130.74 216.19 C 129.45 210.35 131.05 204.32 132.78 198.74 C 136.98 188.95 144.94 181.04 154.76 176.92 C 155.76 176.59 156.76 176.25 157.76 175.89 Z" />
<path fill="#0072b8" opacity="1.00" d=" M 324.75 175.95 C 334.10 173.14 344.20 174.08 353.15 177.85 C 356.92 180.09 360.70 182.40 363.78 185.58 L 364.52 185.55 L 364.54 186.86 L 365.04 186.40 C 368.19 190.55 371.19 194.83 373.15 199.69 C 373.42 200.73 373.72 201.77 374.04 202.81 C 375.12 206.93 375.38 211.18 375.33 215.43 C 374.28 217.59 373.04 219.67 371.30 221.35 C 366.73 223.82 360.18 223.24 357.26 218.56 C 355.00 215.79 355.89 212.07 355.04 208.85 C 353.30 200.63 345.43 194.15 337.00 194.22 C 328.03 193.47 319.29 200.29 317.46 209.02 C 317.04 211.80 316.96 214.63 316.32 217.37 C 315.56 218.27 314.82 219.18 314.09 220.10 C 313.13 220.82 312.19 221.56 311.25 222.30 C 305.93 224.02 299.42 221.67 297.66 216.07 C 296.53 210.26 298.00 204.29 299.87 198.79 C 300.84 196.78 301.82 194.78 302.86 192.81 C 307.26 185.62 314.06 180.21 321.80 176.99 C 322.78 176.65 323.77 176.31 324.75 175.95 Z" />
<path fill="#0072b8" opacity="1.00" d=" M 159.68 308.66 C 161.42 308.12 163.15 307.44 165.01 307.54 C 224.18 307.66 283.36 307.43 342.53 307.66 C 345.42 309.16 348.13 311.44 349.20 314.61 C 349.78 317.72 349.24 320.83 348.13 323.73 C 347.86 323.74 347.30 323.76 347.02 323.76 L 347.54 325.01 C 345.86 327.59 344.61 330.41 343.16 333.12 C 341.53 335.85 339.87 338.55 338.16 341.23 C 332.53 349.43 325.74 356.77 318.16 363.20 C 315.49 365.16 312.87 367.19 310.19 369.14 C 306.84 371.38 303.11 373.03 299.94 375.52 L 299.20 375.08 C 298.66 376.14 297.76 376.63 296.52 376.55 L 296.84 377.09 C 293.07 378.16 289.59 379.99 285.83 381.08 C 262.29 389.31 235.96 388.15 212.80 379.17 C 208.10 376.94 203.45 374.64 198.84 372.23 C 196.88 370.79 194.87 369.42 192.79 368.16 C 189.71 365.96 186.72 363.65 183.87 361.17 C 177.29 355.74 171.90 349.06 166.83 342.24 C 166.19 341.21 165.53 340.20 164.87 339.20 C 161.34 333.83 158.53 328.06 155.84 322.24 C 154.73 319.15 154.85 315.83 155.68 312.70 C 156.98 311.32 158.30 309.96 159.68 308.66 M 180.84 327.38 C 188.12 338.45 197.64 348.20 209.13 354.91 C 213.86 357.75 218.90 360.08 224.08 361.99 C 225.23 362.31 226.39 362.60 227.56 362.88 C 245.40 368.86 265.39 367.77 282.86 360.94 C 285.24 360.04 287.58 359.03 289.85 357.87 C 292.26 356.68 294.58 355.33 296.80 353.82 C 297.81 353.18 298.81 352.52 299.79 351.84 C 301.15 350.92 302.50 349.99 303.88 349.12 L 303.15 348.91 C 305.85 348.07 307.41 345.49 309.75 344.02 L 309.31 343.26 L 310.72 343.66 L 310.36 342.35 L 311.70 342.69 L 311.36 341.36 L 312.67 341.69 L 312.34 340.37 L 313.66 340.75 L 313.29 339.96 C 315.34 338.10 317.23 336.06 318.81 333.80 C 320.41 331.66 321.92 329.46 323.56 327.36 C 275.99 327.47 228.41 327.43 180.84 327.38 Z" />
</g>
</svg>
