<?xml version="1.0" encoding="UTF-8" ?>
<!DOCTYPE svg PUBLIC "-//W3C//DTD SVG 1.1//EN" "http://www.w3.org/Graphics/SVG/1.1/DTD/svg11.dtd">
<svg width="90px" height="90px" viewBox="0 0 225 225" version="1.1" xmlns="http://www.w3.org/2000/svg">

<g id="#0072b8ff">
<path fill="#0072b8" opacity="1.00" d=" M 111.56 6.63 C 113.81 4.75 116.42 1.02 119.50 3.78 C 113.30 18.76 101.84 31.23 89.25 41.24 C 72.73 54.15 52.49 61.75 31.74 64.18 C 30.47 63.05 30.42 61.47 30.61 59.90 C 61.32 56.68 90.85 40.48 108.30 14.74 C 96.60 22.56 83.36 28.85 69.16 30.00 C 67.81 28.50 68.12 25.73 70.45 25.55 C 85.64 23.42 99.71 16.18 111.56 6.63 Z" />
<path fill="#0072b8" opacity="1.00" d=" M 127.08 4.18 C 128.19 2.14 131.82 1.93 132.89 4.11 C 138.28 36.21 158.19 63.70 180.32 86.66 C 186.94 94.11 196.31 99.69 199.54 109.61 C 203.28 121.61 202.04 134.95 197.53 146.55 C 195.05 148.01 191.01 146.19 192.00 142.97 C 195.72 130.27 198.01 114.27 188.17 103.69 C 186.34 121.16 184.72 138.65 182.76 156.11 C 180.51 174.42 170.15 191.30 155.43 202.29 C 148.45 207.45 140.92 211.80 133.83 216.79 C 122.56 224.58 106.73 225.14 95.11 217.78 C 87.89 213.06 80.64 208.36 73.51 203.50 C 56.22 191.29 45.47 171.00 43.82 150.02 C 42.10 135.96 40.85 121.83 39.01 107.79 C 29.36 118.39 25.27 134.64 31.45 147.99 C 32.34 149.35 31.52 150.84 31.16 152.23 C 29.40 152.88 27.57 153.12 25.93 152.02 C 19.54 138.96 20.83 122.80 28.78 110.70 C 37.65 96.20 52.47 86.95 67.13 79.16 C 95.16 62.72 120.91 37.23 127.08 4.18 M 66.05 87.43 C 58.70 91.42 51.50 95.84 45.25 101.43 C 46.78 117.64 48.75 133.91 50.55 150.14 C 51.98 165.50 58.34 180.66 69.55 191.45 C 75.30 197.29 82.45 201.39 89.20 205.92 C 95.79 210.03 102.09 215.45 110.11 216.32 C 117.72 217.59 125.31 214.68 131.42 210.30 C 140.20 204.15 149.88 199.15 157.63 191.65 C 168.00 182.13 174.41 168.78 176.21 154.89 C 178.22 135.90 180.12 116.89 182.03 97.88 C 159.61 76.13 139.79 50.51 129.88 20.55 C 117.61 49.72 93.65 72.62 66.05 87.43 Z" />
<path fill="#0072b8" opacity="1.00" d=" M 176.97 5.15 C 177.79 5.14 179.44 5.13 180.26 5.12 C 180.90 7.25 181.02 9.47 180.94 11.68 C 182.84 11.99 186.82 10.92 186.67 14.01 C 186.73 16.99 182.83 15.87 180.96 16.16 C 180.93 18.26 180.93 20.39 180.22 22.39 C 175.93 23.51 176.28 18.97 176.33 16.02 C 174.49 16.07 172.66 16.10 170.83 16.15 C 170.47 15.60 169.74 14.50 169.37 13.94 C 170.43 10.83 173.72 11.87 176.26 11.83 C 176.38 9.59 176.37 7.33 176.97 5.15 Z" />
<path fill="#0072b8" opacity="1.00" d=" M 206.35 22.41 C 210.14 19.51 214.09 25.87 210.13 28.23 C 206.47 30.78 202.65 24.57 206.35 22.41 Z" />
<path fill="#0072b8" opacity="1.00" d=" M 196.03 50.37 C 196.55 48.23 195.22 44.77 197.70 43.64 C 201.75 43.09 200.47 47.94 200.71 50.37 C 202.93 50.51 207.25 49.59 207.07 53.11 C 206.18 55.69 202.84 54.76 200.76 55.01 C 200.74 57.03 200.62 59.05 200.18 61.03 C 196.14 62.50 195.61 57.90 196.18 55.12 C 193.82 54.84 189.74 55.87 189.40 52.49 C 190.04 49.39 193.80 50.70 196.03 50.37 Z" />
<path fill="#0072b8" opacity="1.00" d=" M 215.36 80.35 C 218.91 78.15 222.50 83.75 219.10 86.15 C 215.47 89.61 211.01 82.35 215.36 80.35 Z" />
<path fill="#0072b8" opacity="1.00" d=" M 58.66 108.06 C 57.51 104.76 60.41 101.10 63.83 103.23 C 74.91 108.31 87.45 106.84 98.43 102.43 C 102.97 105.98 98.56 110.16 94.41 110.86 C 96.05 112.68 98.68 114.30 98.13 117.13 C 97.57 117.46 96.45 118.13 95.88 118.47 C 93.53 116.61 91.63 114.29 89.61 112.10 C 87.02 112.66 84.40 113.01 81.78 113.41 C 82.43 116.59 82.17 124.50 77.38 120.17 C 77.45 117.83 77.46 115.49 77.49 113.15 C 74.77 112.96 72.08 112.49 69.40 112.02 C 67.41 114.68 61.65 121.61 60.54 114.99 C 61.91 113.59 63.22 112.13 64.45 110.60 C 62.46 109.89 60.53 109.03 58.66 108.06 Z" />
<path fill="#0072b8" opacity="1.00" d=" M 132.58 110.54 C 127.56 111.18 123.52 103.15 130.03 102.79 C 140.29 106.74 152.14 108.33 162.43 103.54 C 164.32 102.34 166.35 102.85 168.24 103.74 C 169.69 107.90 165.74 109.73 162.53 110.81 C 164.64 112.87 168.65 116.79 163.85 118.53 C 161.63 116.57 159.60 114.40 157.64 112.19 C 155.08 112.67 152.50 113.03 149.90 113.24 C 149.63 116.24 151.22 122.07 146.28 121.63 C 144.85 119.02 145.48 115.97 145.39 113.13 C 142.70 112.95 140.05 112.49 137.40 111.99 C 134.81 114.17 133.18 118.73 129.13 117.88 C 127.52 114.71 130.96 112.77 132.58 110.54 Z" />
<path fill="#0072b8" opacity="1.00" d=" M 105.76 139.76 C 109.17 132.54 109.90 124.51 111.75 116.85 C 112.90 117.32 115.48 116.87 115.28 118.83 C 114.79 129.90 110.72 140.42 105.62 150.12 C 103.75 157.15 116.47 154.67 114.29 161.35 C 108.38 161.76 101.51 157.50 101.36 151.06 C 100.96 146.75 104.28 143.52 105.76 139.76 Z" />
<path fill="#0072b8" opacity="1.00" d=" M 56.68 139.09 C 56.49 136.93 55.63 132.58 59.15 133.04 C 61.77 133.64 60.66 137.11 61.06 139.03 C 60.53 139.33 59.47 139.94 58.94 140.24 C 58.38 139.95 57.25 139.38 56.68 139.09 Z" />
<path fill="#0072b8" opacity="1.00" d=" M 58.02 144.90 C 59.30 144.78 60.57 144.78 61.85 144.92 C 64.39 157.38 67.91 170.05 75.74 180.33 C 78.13 182.87 73.57 185.87 72.01 182.84 C 64.34 171.69 58.98 158.43 58.02 144.90 Z" />
<path fill="#0072b8" opacity="1.00" d=" M 89.49 172.52 C 90.43 171.18 91.97 172.27 93.00 172.81 C 105.24 179.69 120.99 178.79 133.05 171.97 C 135.58 171.53 136.75 175.15 134.44 176.27 C 121.00 183.60 103.70 184.14 90.32 176.39 C 88.67 175.80 88.10 173.74 89.49 172.52 Z" />
<path fill="#0072b8" opacity="1.00" d=" M 17.96 180.73 C 22.14 177.23 23.32 183.04 22.32 186.30 C 24.29 186.30 26.26 186.40 28.17 186.90 C 29.42 190.92 25.14 191.03 22.37 191.01 C 22.30 192.88 23.19 196.90 20.16 196.54 C 17.11 196.53 18.12 192.69 17.97 190.72 C 15.82 190.76 13.66 190.76 11.54 190.42 C 9.88 185.94 15.01 186.02 17.96 186.35 C 17.97 184.47 17.98 182.60 17.96 180.73 Z" />
<path fill="#0072b8" opacity="1.00" d=" M 41.89 204.00 C 42.21 199.45 48.64 199.75 49.33 204.00 C 48.69 208.27 42.18 208.54 41.89 204.00 Z" />
</g>
</svg>
