<?xml version="1.0" encoding="UTF-8" ?>
<!DOCTYPE svg PUBLIC "-//W3C//DTD SVG 1.1//EN" "http://www.w3.org/Graphics/SVG/1.1/DTD/svg11.dtd">
<svg width="90px" height="90px" viewBox="0 0 394 394" version="1.1" xmlns="http://www.w3.org/2000/svg">
<g id="#0072b8ff">
<path fill="#0072b8" opacity="1.00" d=" M 42.78 0.76 C 43.65 0.76 45.39 0.74 46.25 0.73 C 48.04 1.55 49.66 2.65 51.24 3.80 C 52.53 6.36 53.28 9.37 52.17 12.15 C 50.79 15.50 49.11 18.75 48.20 22.28 C 46.86 23.52 46.84 25.57 45.89 27.09 C 49.64 25.92 53.17 23.60 57.29 24.60 C 58.93 25.72 60.76 26.77 61.69 28.62 C 63.09 31.33 62.76 34.65 61.32 37.28 C 60.63 37.94 59.95 38.61 59.27 39.28 C 57.43 40.17 55.58 41.11 53.56 41.52 L 53.48 42.25 C 51.58 42.44 49.81 43.19 48.17 44.11 C 45.93 44.82 43.89 46.07 41.57 46.55 L 41.48 47.27 C 39.56 47.39 37.84 48.29 36.16 49.15 C 33.41 50.54 30.34 50.80 27.32 50.30 L 27.37 49.10 C 26.99 49.20 26.24 49.39 25.86 49.49 C 24.87 47.71 23.58 46.12 22.70 44.28 C 22.71 43.38 22.72 41.56 22.73 40.65 C 23.31 39.65 23.63 38.57 23.70 37.41 L 24.37 37.43 C 24.83 35.79 25.49 34.21 25.74 32.52 L 26.43 32.49 C 26.87 30.13 28.23 28.09 28.80 25.77 C 29.10 25.36 29.70 24.53 30.01 24.12 C 28.52 24.67 27.02 25.18 25.48 25.54 L 25.63 26.33 C 23.22 26.52 20.81 26.53 18.40 26.34 L 18.46 25.74 C 14.91 24.21 12.87 19.81 14.17 16.15 C 14.66 14.49 15.89 13.20 16.83 11.80 C 19.89 10.60 22.88 9.25 25.88 7.91 C 28.12 7.22 30.13 5.88 32.47 5.50 L 32.52 4.74 C 34.45 4.61 36.18 3.74 37.84 2.84 C 39.54 2.29 41.24 1.70 42.78 0.76 Z" />
<path fill="#0072b8" opacity="1.00" d=" M 165.79 46.91 C 191.53 41.14 218.47 41.16 244.22 46.89 C 245.49 47.63 246.91 47.66 248.35 47.53 C 248.85 49.74 251.22 48.33 252.72 48.55 L 252.42 49.31 C 253.13 49.43 254.55 49.68 255.26 49.81 C 259.26 51.11 263.18 52.69 267.25 53.77 C 268.67 54.87 270.51 55.20 272.14 55.89 C 274.59 56.85 276.84 58.48 279.52 58.73 L 279.60 59.79 C 280.10 59.71 281.10 59.56 281.60 59.49 L 281.59 60.79 C 282.06 60.70 283.00 60.52 283.47 60.43 L 283.69 61.80 C 284.06 61.74 284.80 61.62 285.17 61.56 C 286.20 63.02 287.99 63.46 289.47 64.31 C 291.08 65.03 292.39 66.39 294.19 66.67 C 298.00 69.62 302.27 72.01 306.26 74.75 C 310.29 77.71 314.07 81.04 318.23 83.79 C 318.93 85.39 320.66 86.09 321.85 87.26 C 327.25 92.15 332.34 97.37 337.20 102.79 C 338.74 104.91 340.56 106.81 342.22 108.84 C 343.11 110.24 344.19 111.52 345.26 112.80 C 346.13 114.20 347.15 115.49 348.20 116.77 C 350.23 119.76 352.01 122.95 354.27 125.77 C 355.11 127.53 356.03 129.27 357.16 130.86 C 360.39 136.74 363.39 142.73 366.11 148.86 C 366.70 150.55 367.34 152.22 368.24 153.78 C 368.71 155.34 369.20 156.89 369.62 158.47 L 370.20 158.42 C 370.20 159.66 370.53 160.78 371.20 161.78 C 371.31 162.47 371.52 163.84 371.62 164.53 L 372.23 164.42 C 372.50 166.96 373.32 169.38 374.11 171.79 C 374.39 173.12 374.73 174.43 375.15 175.72 C 375.37 177.10 375.64 178.48 376.16 179.79 C 376.40 181.44 376.61 183.12 377.18 184.70 C 379.48 199.31 381.08 214.18 379.71 228.96 C 379.49 236.43 378.32 243.82 377.13 251.19 C 376.33 252.85 376.34 254.71 376.28 256.52 L 375.64 256.54 C 375.49 257.76 375.34 258.97 375.18 260.19 C 374.38 261.50 374.29 263.01 374.28 264.52 L 373.69 264.51 C 372.91 269.59 370.72 274.33 369.13 279.19 C 368.77 280.20 368.43 281.21 368.11 282.23 C 366.98 283.75 366.53 285.66 366.27 287.50 L 365.45 287.54 C 363.81 292.68 361.26 297.60 358.40 302.18 L 358.59 303.13 C 356.61 305.11 355.11 307.79 354.27 310.45 L 353.62 310.44 C 350.05 316.73 345.53 322.40 341.21 328.16 C 335.21 335.18 329.14 342.20 322.08 348.20 C 319.72 350.15 317.55 352.30 315.16 354.21 C 308.79 359.25 302.07 363.81 295.28 368.27 C 294.31 368.76 293.34 369.21 292.34 369.64 L 292.60 370.55 C 292.18 370.50 291.35 370.39 290.94 370.34 C 289.22 372.09 286.73 372.76 284.67 374.03 C 281.34 375.57 278.16 377.57 274.59 378.48 L 274.51 379.27 C 272.60 379.41 270.87 380.24 269.23 381.16 C 263.25 383.20 257.26 385.23 251.26 387.19 C 249.87 387.35 248.49 387.61 247.21 388.19 C 245.82 388.31 244.45 388.50 243.23 389.22 C 241.53 389.37 239.79 389.44 238.21 390.18 C 223.65 392.49 208.80 394.08 194.05 392.74 C 184.87 392.48 175.78 390.93 166.80 389.11 C 164.13 388.41 161.44 387.81 158.78 387.09 C 157.27 386.47 155.64 386.36 154.04 386.25 L 154.84 385.66 C 154.08 385.54 152.56 385.31 151.80 385.19 C 150.86 384.67 149.86 384.30 148.80 384.10 C 147.73 383.58 146.60 383.27 145.41 383.19 L 145.44 382.64 C 143.87 382.22 142.33 381.72 140.78 381.24 C 139.21 380.38 137.55 379.70 135.86 379.12 C 129.72 376.43 123.74 373.38 117.85 370.18 C 116.25 369.04 114.52 368.13 112.77 367.26 C 109.92 365.05 106.75 363.28 103.79 361.20 C 102.47 360.19 101.16 359.16 99.79 358.23 C 96.66 356.00 93.89 353.26 90.65 351.20 L 90.47 350.41 L 89.46 350.46 L 89.56 349.77 C 83.43 344.84 78.03 339.01 72.77 333.17 C 72.53 332.93 72.05 332.45 71.81 332.22 C 68.45 327.91 65.00 323.66 61.74 319.26 C 59.01 315.28 56.57 311.09 53.73 307.20 C 52.55 304.77 51.56 301.96 49.51 300.14 C 49.59 299.78 49.76 299.08 49.85 298.72 L 48.73 298.49 C 48.68 298.09 48.58 297.28 48.53 296.88 L 47.48 296.24 C 47.55 295.83 47.69 295.01 47.76 294.60 L 46.49 294.50 C 46.55 294.02 46.67 293.05 46.73 292.57 L 45.73 292.52 C 45.43 289.86 43.84 287.60 42.87 285.16 C 42.23 283.47 41.84 281.63 40.72 280.20 C 39.50 275.24 37.18 270.59 36.25 265.54 L 35.72 265.61 C 35.49 262.73 34.68 259.96 33.93 257.19 C 33.06 253.88 32.75 250.45 31.87 247.16 C 29.70 232.21 28.68 216.99 30.39 201.94 C 30.42 197.52 31.50 193.23 31.79 188.84 C 32.86 185.60 33.06 182.13 33.90 178.82 C 34.64 176.16 35.17 173.45 35.89 170.79 C 36.80 168.28 37.48 165.68 37.82 163.03 L 38.44 163.85 C 38.51 162.98 38.64 161.24 38.71 160.36 L 39.41 160.54 C 39.74 158.92 40.25 157.35 40.87 155.83 C 41.36 154.75 41.67 153.62 41.80 152.45 L 42.50 152.44 C 42.67 149.93 44.67 148.03 44.72 145.50 L 45.53 145.43 C 45.89 143.43 47.06 141.73 47.82 139.88 C 48.67 137.82 50.51 136.08 50.63 133.79 C 52.57 132.29 52.75 129.53 54.62 127.93 C 54.56 127.57 54.43 126.86 54.37 126.51 L 55.35 126.63 C 55.79 125.66 56.23 124.71 56.69 123.76 C 59.25 120.61 61.33 117.05 63.76 113.77 C 64.80 112.49 65.87 111.22 66.78 109.84 C 68.16 108.19 69.55 106.56 70.84 104.84 C 79.81 94.48 89.80 84.99 100.77 76.77 C 104.08 74.39 107.61 72.25 110.75 69.69 C 111.69 69.24 112.64 68.80 113.59 68.38 L 113.52 67.54 C 116.19 67.56 118.01 64.95 120.57 64.31 L 120.50 63.39 C 120.90 63.47 121.69 63.62 122.08 63.69 C 122.92 62.95 123.85 62.34 124.88 61.86 C 125.38 61.61 126.39 61.11 126.90 60.86 C 128.73 60.05 130.45 58.91 132.45 58.54 L 132.51 57.71 C 134.44 57.66 136.09 56.61 137.78 55.80 C 139.52 55.33 141.19 54.62 142.81 53.82 C 145.47 53.10 147.94 51.62 150.76 51.50 L 149.99 50.87 C 152.64 50.46 155.28 49.86 157.80 48.90 C 160.44 48.12 163.18 47.75 165.79 46.91 M 169.18 63.16 C 167.96 63.33 166.74 63.49 165.52 63.63 L 165.55 64.21 C 164.10 64.37 162.67 64.58 161.30 65.09 C 159.31 65.66 157.33 66.27 155.28 66.60 L 155.97 67.24 C 155.03 67.33 153.13 67.50 152.18 67.59 L 152.97 68.23 C 151.51 68.08 150.25 68.40 149.17 69.21 C 147.46 69.70 145.65 70.09 144.20 71.17 C 141.30 71.85 138.82 73.61 136.01 74.52 C 134.41 75.45 132.72 76.21 131.11 77.13 C 128.72 78.33 126.25 79.50 124.17 81.20 C 122.28 81.76 120.68 82.99 119.24 84.30 C 118.30 84.75 117.36 85.20 116.41 85.64 L 116.54 86.30 C 115.26 86.63 114.08 87.22 113.23 88.25 C 111.96 89.06 110.70 89.89 109.41 90.68 L 109.50 91.27 C 107.76 91.74 106.56 93.14 105.22 94.25 C 102.74 95.70 101.00 98.07 98.63 99.66 C 97.73 100.40 96.87 101.19 96.12 102.09 C 93.60 104.25 91.23 106.59 89.10 109.13 C 88.22 109.66 87.59 110.40 87.22 111.37 L 86.68 111.44 C 85.24 114.00 82.69 115.66 81.25 118.22 C 80.15 119.57 78.74 120.77 78.27 122.52 L 77.68 122.40 C 76.88 123.69 76.05 124.95 75.24 126.23 C 74.22 127.09 73.63 128.26 73.30 129.54 L 72.64 129.41 C 72.21 130.36 71.76 131.31 71.30 132.25 C 70.38 133.06 69.77 134.13 69.18 135.21 C 67.39 138.12 65.57 141.05 64.12 144.15 C 63.35 145.41 62.63 146.72 62.11 148.11 C 61.87 148.61 61.38 149.60 61.14 150.10 C 60.11 152.45 58.75 154.68 58.17 157.20 C 57.04 158.61 56.71 160.46 56.21 162.15 C 55.43 163.16 55.12 164.34 55.29 165.71 L 54.52 165.35 C 54.46 166.26 54.35 168.07 54.29 168.98 L 53.56 168.15 C 53.49 169.05 53.36 170.85 53.29 171.75 L 52.64 171.33 C 52.20 175.04 50.50 178.46 50.09 182.18 C 47.79 191.67 46.50 201.42 46.16 211.17 C 45.80 215.47 45.67 219.80 46.09 224.10 C 46.52 234.08 47.63 244.12 50.16 253.79 C 50.36 255.14 50.48 256.54 51.09 257.79 C 51.79 260.09 51.94 262.65 53.21 264.75 C 53.32 265.50 53.53 266.99 53.64 267.74 L 54.26 267.11 C 54.18 268.45 54.46 269.68 55.09 270.80 C 55.44 271.82 55.79 272.85 56.14 273.88 C 56.76 275.61 57.19 277.50 58.42 278.94 L 58.07 280.33 C 58.39 280.36 59.03 280.44 59.35 280.47 C 59.42 280.98 59.57 281.99 59.64 282.49 C 62.16 288.09 64.92 293.61 68.17 298.83 C 69.68 301.58 71.36 304.24 73.21 306.77 C 74.75 309.20 76.41 311.56 78.19 313.83 C 79.43 315.57 80.79 317.22 82.24 318.79 C 84.34 321.70 86.84 324.33 89.41 326.82 L 89.45 327.59 L 90.52 327.57 L 90.46 328.73 L 91.50 328.45 L 91.41 329.61 L 92.59 329.49 L 92.23 330.56 L 93.18 330.55 C 93.79 331.70 94.76 332.59 95.66 333.51 L 96.17 333.58 C 103.90 341.34 112.86 347.78 122.11 353.61 C 123.43 354.38 124.70 355.33 126.20 355.74 C 128.39 357.63 131.20 358.57 133.70 359.96 C 135.88 360.92 137.86 362.45 140.28 362.71 L 140.80 363.51 C 141.13 363.60 141.79 363.77 142.11 363.86 C 143.73 364.71 145.43 365.38 147.20 365.85 C 152.00 368.02 157.13 369.57 162.23 370.90 C 163.54 371.66 165.04 371.67 166.52 371.73 L 166.53 372.42 C 167.78 372.48 169.03 372.54 170.29 372.61 C 171.32 374.33 173.57 373.38 175.19 373.79 C 177.03 374.82 179.24 374.55 181.24 375.04 C 198.98 377.62 217.23 377.42 234.81 373.89 C 236.47 373.66 238.12 373.38 239.73 372.90 C 241.09 372.63 242.48 372.42 243.79 371.94 C 246.09 371.32 248.38 370.68 250.72 370.26 L 250.12 369.77 C 254.54 369.26 258.70 367.49 262.80 365.84 C 265.76 364.96 268.40 363.27 271.40 362.50 L 271.50 361.74 C 274.50 361.05 277.64 359.70 279.86 357.54 C 280.15 357.57 280.73 357.65 281.02 357.69 C 284.34 355.00 288.49 353.51 291.76 350.74 C 292.86 350.24 293.91 349.65 294.76 348.77 C 297.24 347.31 299.53 345.56 301.79 343.78 C 303.83 342.45 305.46 340.59 307.53 339.31 L 307.64 338.81 C 311.25 336.48 314.01 333.05 317.20 330.20 C 320.06 327.01 323.48 324.25 325.82 320.64 L 326.32 320.54 C 327.58 318.45 329.46 316.83 330.78 314.79 C 332.55 312.52 334.32 310.24 335.77 307.75 C 336.65 306.91 337.24 305.86 337.73 304.76 C 339.00 303.20 340.45 301.55 340.68 299.48 L 341.33 299.54 C 342.29 297.20 344.08 295.27 344.83 292.86 C 346.44 290.25 348.23 287.57 348.74 284.50 L 349.49 284.38 C 350.25 281.39 351.99 278.77 352.82 275.79 C 353.80 273.77 354.73 271.68 354.73 269.38 L 355.39 269.53 C 355.86 267.42 356.56 265.35 356.75 263.19 L 357.26 263.64 C 357.68 261.33 358.32 259.07 358.91 256.80 C 364.57 234.46 365.41 210.77 360.89 188.17 C 360.56 186.50 360.67 184.69 359.78 183.19 C 359.56 181.85 359.70 180.37 358.86 179.22 C 358.64 177.86 358.48 176.48 357.92 175.21 C 356.52 170.13 354.99 165.02 352.86 160.20 C 352.34 157.88 350.85 155.90 350.57 153.52 L 349.50 153.62 C 349.58 153.10 349.74 152.05 349.83 151.53 L 348.67 151.60 C 348.80 149.28 347.20 147.48 346.33 145.47 C 345.54 144.00 345.06 142.30 343.76 141.17 C 343.52 140.68 343.05 139.69 342.81 139.19 C 340.31 134.25 337.19 129.61 333.83 125.21 C 332.06 121.96 329.25 119.48 327.32 116.36 L 326.77 116.50 C 325.06 113.26 322.14 110.78 319.60 108.18 L 319.53 107.42 L 318.48 107.42 L 318.52 106.28 L 317.35 106.49 L 317.67 105.41 L 316.53 105.48 L 316.56 104.35 L 315.52 104.62 L 315.68 103.49 L 314.58 103.51 L 314.51 102.72 C 309.96 98.86 305.64 94.73 300.81 91.20 C 298.54 89.43 296.19 87.77 293.77 86.22 C 291.21 84.39 288.58 82.67 285.82 81.17 C 282.95 79.29 279.85 77.79 276.84 76.16 C 276.33 75.91 275.33 75.41 274.82 75.16 C 272.39 74.14 270.13 72.43 267.41 72.34 L 267.46 71.41 C 265.08 71.20 263.09 69.78 260.86 69.10 C 259.84 68.76 258.81 68.43 257.79 68.11 C 256.68 67.48 255.47 67.19 254.14 67.27 L 254.72 66.66 C 253.98 66.55 252.51 66.33 251.77 66.21 C 249.65 64.98 247.13 64.78 244.82 64.09 C 241.88 63.17 238.83 62.61 235.80 62.13 C 233.75 61.17 231.41 61.38 229.25 60.83 C 209.34 57.76 188.76 58.39 169.18 63.16 Z" />
<path fill="#0072b8" opacity="1.00" d=" M 57.87 60.91 C 59.55 60.33 61.22 59.68 62.72 58.72 C 65.26 57.98 68.71 57.65 70.26 60.34 C 72.04 63.20 70.12 66.38 69.14 69.15 C 68.33 70.78 67.61 72.45 67.23 74.23 C 66.06 75.62 65.82 77.53 65.11 79.16 C 64.44 80.40 63.80 81.66 63.06 82.87 C 64.05 82.68 64.98 82.36 65.87 81.91 C 68.08 81.15 70.10 79.89 72.43 79.48 L 72.40 78.66 C 74.47 78.37 76.34 79.11 78.26 79.70 C 80.02 82.14 80.54 86.29 77.64 88.10 C 75.73 89.05 73.81 90.24 71.64 90.40 C 71.61 90.62 71.56 91.08 71.53 91.31 C 69.78 91.48 68.16 92.18 66.49 92.65 L 66.55 93.31 C 64.01 93.34 62.04 95.22 59.56 95.52 L 59.48 96.26 C 57.92 96.43 56.50 97.11 55.02 97.55 C 53.06 98.01 51.23 96.99 49.50 96.25 C 49.57 95.86 49.71 95.06 49.78 94.66 L 48.64 94.64 C 48.65 93.57 48.69 91.42 48.71 90.34 L 49.54 90.45 C 49.78 88.08 51.23 86.11 51.87 83.86 C 52.63 82.23 53.32 80.57 53.90 78.87 C 54.84 76.68 55.64 74.41 56.99 72.43 C 55.23 73.67 52.91 73.80 51.24 75.14 C 48.82 76.10 46.33 76.99 43.68 76.46 C 42.97 75.74 42.25 75.03 41.53 74.33 C 40.40 71.37 41.33 66.44 45.28 66.61 C 45.35 66.39 45.49 65.96 45.56 65.75 C 47.46 65.58 49.17 64.70 50.87 63.88 C 53.25 63.01 55.58 62.00 57.87 60.91 Z" />
<path fill="#0072b8" opacity="1.00" d=" M 129.78 142.87 C 132.67 141.81 135.70 141.22 138.74 140.83 C 143.00 140.28 147.20 141.54 151.23 142.78 C 152.50 143.53 153.81 144.21 155.21 144.70 C 157.59 146.71 160.30 148.39 162.21 150.91 C 163.32 152.21 163.99 153.92 165.52 154.82 C 165.47 155.12 165.36 155.73 165.31 156.04 C 168.10 159.67 168.62 164.75 168.75 169.27 C 163.34 169.23 157.92 169.13 152.51 169.35 C 152.49 167.17 151.95 165.06 150.95 163.14 C 148.12 158.03 141.37 155.66 136.05 158.12 C 131.38 159.73 128.80 164.69 128.62 169.41 C 123.21 169.06 117.78 169.20 112.37 169.36 C 112.46 166.08 112.88 162.83 113.90 159.71 C 114.87 157.74 115.72 155.71 116.75 153.76 C 117.90 152.48 119.01 151.14 119.80 149.60 L 120.66 149.69 L 120.54 148.74 C 120.86 148.51 121.51 148.04 121.84 147.81 C 123.24 146.89 124.63 145.93 125.85 144.77 C 127.23 144.30 128.61 143.75 129.78 142.87 Z" />
<path fill="#0072b8" opacity="1.00" d=" M 266.70 140.87 C 270.23 140.36 273.71 141.29 277.17 141.85 C 278.35 142.45 279.61 142.79 280.96 142.86 L 280.41 144.05 C 280.84 143.91 281.69 143.61 282.11 143.46 C 282.81 144.65 283.99 145.26 285.24 145.75 C 287.80 147.84 290.24 150.10 292.25 152.75 C 292.78 153.85 293.41 154.92 294.21 155.85 C 294.44 156.33 294.89 157.29 295.11 157.77 C 295.42 158.77 295.76 159.77 296.12 160.77 C 296.84 163.60 297.36 166.47 297.49 169.40 C 291.97 169.11 286.44 169.29 280.92 169.21 C 281.15 163.19 276.26 157.41 270.13 157.25 C 263.42 156.41 256.79 162.54 257.37 169.34 C 251.90 169.18 246.43 169.24 240.96 169.23 C 241.14 165.68 241.47 162.11 242.73 158.76 C 245.96 151.19 252.30 144.30 260.52 142.43 L 260.23 141.75 C 262.41 141.63 264.55 141.23 266.70 140.87 Z" />
<path fill="#0072b8" opacity="1.00" d=" M 275.01 265.04 C 275.58 265.21 276.70 265.56 277.27 265.74 C 277.74 266.02 278.67 266.58 279.14 266.87 C 280.64 268.12 282.41 268.95 284.14 269.85 C 285.65 270.97 287.54 271.52 288.85 272.90 C 288.73 273.58 288.49 274.93 288.37 275.61 L 287.64 275.46 C 280.86 286.98 271.19 296.63 260.21 304.21 C 259.15 304.78 258.12 305.43 257.24 306.26 C 255.64 307.10 254.04 307.93 252.42 308.71 L 252.48 309.65 C 252.04 309.53 251.17 309.29 250.74 309.17 L 250.46 310.51 C 249.96 310.45 248.98 310.34 248.48 310.28 L 248.62 311.28 C 245.97 311.60 243.64 313.04 241.24 314.09 C 240.22 314.41 239.21 314.72 238.20 315.04 C 237.20 315.37 236.20 315.73 235.21 316.10 C 228.92 317.76 222.59 319.52 216.04 319.70 C 206.61 320.95 197.07 319.77 187.76 318.13 C 177.99 315.89 168.57 312.18 159.86 307.20 C 156.78 305.31 153.81 303.22 150.82 301.19 C 149.10 299.80 147.56 298.12 145.52 297.19 L 145.62 296.47 L 144.65 296.37 L 144.37 295.72 C 142.03 293.70 139.91 291.44 137.81 289.18 C 137.57 288.93 137.09 288.41 136.85 288.15 C 133.49 284.43 130.85 280.14 127.76 276.22 C 127.12 275.11 126.64 273.93 126.32 272.69 C 128.31 271.08 130.97 270.52 132.81 268.71 C 135.45 267.98 137.40 265.70 140.13 265.11 C 142.53 268.30 144.34 271.93 147.17 274.80 C 151.64 280.61 157.18 285.62 163.16 289.84 C 167.89 292.97 172.77 296.09 178.19 297.85 C 194.89 305.15 214.50 305.64 231.78 299.92 C 232.81 299.58 233.84 299.24 234.87 298.89 C 237.29 298.05 239.62 297.00 241.92 295.87 C 246.47 293.63 250.86 290.99 254.80 287.79 C 256.95 286.55 258.44 284.49 260.57 283.22 L 260.48 282.58 L 261.48 282.45 L 261.62 281.44 L 262.62 281.65 L 262.46 280.45 L 263.47 280.63 L 263.61 279.62 L 264.61 279.46 L 264.39 278.54 L 265.21 278.52 C 266.57 276.48 268.48 274.87 269.78 272.78 C 270.70 271.86 271.34 270.73 271.73 269.49 L 272.34 269.56 C 272.80 268.62 273.28 267.70 273.76 266.78 C 274.07 266.34 274.70 265.47 275.01 265.04 Z" />
</g>
</svg>
