<?xml version="1.0" encoding="UTF-8" ?>
<!DOCTYPE svg PUBLIC "-//W3C//DTD SVG 1.1//EN" "http://www.w3.org/Graphics/SVG/1.1/DTD/svg11.dtd">
<svg width="90px" height="90px" viewBox="0 0 509 509" version="1.1" xmlns="http://www.w3.org/2000/svg">
<g id="#0072b8ff">
<path fill="#0072b8" opacity="1.00" d=" M 341.89 13.01 C 344.48 8.58 350.42 6.34 355.18 8.50 C 361.33 10.63 363.82 18.89 360.22 24.21 C 356.09 30.22 351.96 36.23 347.86 42.27 C 322.64 80.04 298.40 118.45 274.44 157.02 C 273.75 158.12 272.94 159.12 272.04 160.04 C 257.67 175.04 243.32 190.05 228.89 204.99 C 238.02 221.22 249.10 236.49 262.30 249.68 C 270.19 257.63 279.12 264.70 289.23 269.62 C 298.88 274.22 309.91 276.63 320.53 274.55 C 320.97 265.33 321.72 256.13 322.35 246.93 C 322.34 244.35 323.70 242.07 325.39 240.24 C 364.42 197.82 402.19 154.22 438.51 109.45 C 455.71 88.25 472.52 66.73 488.78 44.80 C 491.70 40.76 497.65 39.28 502.08 41.60 C 506.24 43.60 508.79 48.41 507.94 52.97 C 507.13 57.45 503.48 60.55 501.05 64.16 L 501.01 63.58 C 500.70 64.66 500.17 65.63 499.42 66.47 C 454.59 125.77 406.52 182.55 356.77 237.73 C 352.44 242.71 347.59 247.28 343.60 252.52 C 342.47 264.97 341.65 277.49 341.40 290.00 C 341.44 312.34 341.40 334.69 341.43 357.04 C 341.33 360.35 342.65 363.68 345.03 366.00 C 357.68 377.37 370.16 388.93 382.73 400.39 C 388.10 405.02 392.99 410.18 398.57 414.58 C 399.88 415.62 401.58 415.91 403.15 416.39 C 419.46 420.33 435.69 424.59 451.98 428.60 C 462.88 431.71 472.37 439.97 476.67 450.49 C 480.09 459.89 479.25 470.37 475.91 479.67 C 468.68 492.10 454.64 501.00 440.00 500.04 C 391.67 500.04 343.33 500.05 295.00 500.04 C 288.06 499.85 281.22 497.43 275.64 493.32 C 218.46 448.83 161.27 404.35 104.08 359.88 C 93.84 351.67 90.07 337.01 93.37 324.57 C 94.82 318.46 99.47 313.99 102.89 308.96 C 107.80 302.54 112.26 295.78 117.30 289.47 C 140.17 258.60 162.90 227.65 185.82 196.82 C 187.93 194.01 191.49 192.40 194.99 192.60 C 200.32 192.63 205.64 192.62 210.97 192.63 C 225.56 177.67 239.88 162.44 254.46 147.46 C 257.88 143.68 260.18 139.11 262.94 134.87 C 288.64 93.85 314.37 52.84 341.89 13.01 M 199.41 214.50 C 193.01 223.15 186.60 231.80 180.22 240.47 C 195.81 257.06 207.59 278.05 210.32 300.89 C 212.12 317.39 208.86 334.31 201.26 349.04 C 236.23 376.18 271.16 403.39 306.11 430.57 C 308.23 432.18 310.24 433.98 312.57 435.29 C 314.29 435.96 316.18 435.91 318.00 435.97 C 339.34 435.90 360.68 435.96 382.02 435.93 C 384.57 436.11 386.97 435.14 388.85 433.46 C 385.65 432.11 382.97 429.86 380.52 427.45 C 363.46 411.75 346.22 396.24 329.24 380.46 C 326.79 384.44 323.64 387.92 320.94 391.74 C 318.87 394.74 315.80 397.44 311.96 397.54 C 308.13 397.90 304.26 395.93 302.19 392.72 C 299.71 389.13 299.85 383.97 302.52 380.52 C 304.50 377.80 306.64 375.20 308.57 372.45 C 299.87 371.66 291.29 369.77 282.97 367.11 C 278.28 365.78 275.01 360.87 275.48 356.04 C 275.67 349.54 282.79 344.56 288.99 346.52 C 298.95 349.82 309.40 351.71 319.91 351.80 C 319.83 344.68 320.14 337.55 319.84 330.43 C 307.53 330.48 295.26 328.25 283.51 324.64 C 278.88 323.40 275.21 318.87 275.45 314.01 C 275.30 308.41 280.42 303.32 286.01 303.46 C 287.93 303.38 289.75 304.06 291.56 304.63 C 300.71 307.54 310.28 308.96 319.87 309.19 C 319.94 304.90 320.02 300.61 319.90 296.32 C 313.33 296.92 306.65 296.83 300.17 295.49 C 283.72 292.37 269.00 283.43 256.32 272.78 C 237.17 256.28 221.91 235.76 209.16 214.05 C 205.95 214.43 202.43 213.55 199.41 214.50 M 136.98 299.07 C 152.65 311.22 168.40 323.29 183.89 335.66 C 188.51 324.47 190.38 312.06 188.36 300.06 C 185.72 284.34 177.83 269.72 167.14 258.04 C 157.26 271.83 146.87 285.27 136.98 299.07 M 115.25 328.40 C 113.49 330.88 111.99 333.85 112.64 336.98 C 113.64 340.45 116.72 342.59 119.45 344.65 C 175.71 388.42 231.99 432.15 288.24 475.92 C 290.16 477.43 292.42 478.83 294.98 478.59 C 341.32 478.58 387.66 478.58 434.01 478.59 C 437.99 478.73 441.96 478.28 445.94 478.35 C 450.97 478.02 454.78 473.95 456.44 469.44 C 459.61 464.02 457.25 457.07 453.18 452.82 C 450.82 450.16 447.19 449.51 443.92 448.67 C 433.68 446.24 423.54 443.38 413.25 441.18 C 410.06 444.03 406.64 446.60 403.36 449.34 C 396.91 454.77 388.41 457.68 379.99 457.41 C 359.66 457.40 339.33 457.40 319.00 457.41 C 310.33 457.75 301.55 454.74 294.96 449.08 C 238.04 404.79 181.10 360.55 124.18 316.25 C 121.21 320.31 118.16 324.31 115.25 328.40 Z" />
<path fill="#0072b8" opacity="1.00" d=" M 29.00 351.00 C 36.92 350.02 45.01 350.83 53.00 350.57 C 58.39 350.17 63.35 354.70 64.02 359.95 C 64.93 365.83 60.14 371.72 54.18 372.08 C 46.78 372.10 39.38 372.12 31.97 372.11 C 26.55 372.13 21.30 367.54 21.31 361.97 C 20.82 357.06 24.28 352.26 29.00 351.00 Z" />
<path fill="#0072b8" opacity="1.00" d=" M 0.00 402.45 C 0.95 397.62 5.10 393.49 10.16 393.44 C 38.10 393.31 66.05 393.45 93.99 393.37 C 96.24 393.36 98.58 393.40 100.62 394.46 C 104.80 396.41 107.35 401.33 106.40 405.87 C 105.71 410.23 101.95 413.89 97.57 414.44 C 94.72 414.74 91.85 414.56 89.00 414.59 C 64.32 414.60 39.65 414.57 14.98 414.60 C 11.65 414.59 8.04 414.91 5.10 413.02 C 2.34 411.46 0.78 408.53 0.00 405.56 L 0.00 402.45 Z" />
<path fill="#0072b8" opacity="1.00" d=" M 28.42 436.54 C 31.15 435.43 34.14 436.00 37.00 435.95 C 56.66 435.92 76.33 435.95 95.99 435.93 C 101.80 435.79 107.16 441.11 106.67 446.99 C 106.77 452.64 101.56 457.52 95.98 457.39 C 74.66 457.43 53.33 457.39 32.01 457.40 C 26.44 457.55 21.22 452.67 21.31 447.03 C 20.98 442.47 24.10 437.98 28.42 436.54 Z" />
<path fill="#0072b8" opacity="1.00" d=" M 136.98 436.05 C 142.09 435.00 147.87 437.85 149.58 442.90 C 151.43 447.39 149.51 452.92 145.50 455.56 C 142.17 457.91 137.58 457.96 133.93 456.35 C 130.79 454.75 128.44 451.58 127.99 448.05 C 127.15 442.49 131.32 436.73 136.98 436.05 Z" />
<path fill="#0072b8" opacity="1.00" d=" M 29.03 478.98 C 33.40 477.85 38.66 478.70 41.58 482.43 C 45.69 486.83 44.60 494.57 39.75 498.00 C 36.33 500.41 31.66 500.66 27.80 499.22 C 23.85 497.56 21.03 493.34 21.32 489.02 C 21.17 484.39 24.65 480.18 29.03 478.98 Z" />
<path fill="#0072b8" opacity="1.00" d=" M 71.11 479.09 C 72.67 478.50 74.37 478.60 76.01 478.56 C 118.33 478.59 160.66 478.53 202.98 478.59 C 208.51 478.55 213.38 483.53 213.41 489.01 C 213.75 494.37 209.31 499.40 204.03 499.98 C 202.03 500.21 200.00 500.07 197.99 500.10 C 156.99 500.10 115.99 500.09 74.98 500.10 C 70.14 500.22 65.39 496.89 64.29 492.09 C 62.63 486.80 66.01 480.91 71.11 479.09 Z" />
</g>
</svg>
